<svg width="201" height="131" viewBox="0 0 201 131" fill="none" xmlns="http://www.w3.org/2000/svg">
<g clip-path="url(#clip0_289_1691)">
<path d="M184.875 12.4762C184.875 9.29476 183.656 6.08214 181.219 3.64929C178.781 1.21643 175.594 0 172.375 0H28.625C25.4375 0 22.2188 1.21643 19.7813 3.64929C17.3438 6.08214 16.125 9.26357 16.125 12.4762V112.286H184.875V12.4762Z" fill="#474545"/>
<path d="M172.375 12.4762H28.625V99.8095H172.375V12.4762Z" fill="white"/>
<path d="M200.5 112.286H0.5V118.524H200.5V112.286Z" fill="#EFF4F7"/>
<path d="M200.5 118.524C200.5 121.705 199.281 124.918 196.844 127.351C194.406 129.784 191.219 131 188 131H13C9.8125 131 6.59375 129.784 4.15625 127.351C1.71875 124.918 0.5 121.736 0.5 118.524H200.5Z" fill="#DFE3E6"/>
<path d="M119.25 118.524H81.75L75.5 112.286H125.5L119.25 118.524Z" fill="#5E5C5C"/>
<path d="M172.375 87.3334H28.625V99.8096H172.375V87.3334Z" fill="#DFE3E6"/>
<path d="M172.375 12.4762H28.625V24.9524H172.375V12.4762Z" fill="#DFE3E6"/>
<path d="M166.125 53.0238H159.875V59.2619H166.125V53.0238Z" fill="#474545"/>
<path d="M153.625 53.0238H122.375V59.2619H153.625V53.0238Z" fill="#474545"/>
<path d="M41.125 53.0238H34.875V59.2619H41.125V53.0238Z" fill="#474545"/>
<path d="M78.625 53.0238H47.375V59.2619H78.625V53.0238Z" fill="#474545"/>
<path d="M100.5 81.0952C114.307 81.0952 125.5 69.9236 125.5 56.1428C125.5 42.362 114.307 31.1904 100.5 31.1904C86.6929 31.1904 75.5 42.362 75.5 56.1428C75.5 69.9236 86.6929 81.0952 100.5 81.0952Z" fill="#F42F52"/>
<path d="M91.125 87.3334H84.875V93.5715H91.125V87.3334Z" fill="#474545"/>
<path d="M103.625 87.3334H97.375V93.5715H103.625V87.3334Z" fill="#474545"/>
<path d="M116.125 87.3334H109.875V93.5715H116.125V87.3334Z" fill="#474545"/>
<path d="M112.094 49.0002L107.656 44.5712L100.5 51.745L93.3437 44.5712L88.9062 49.0002L96.0937 56.1428L88.9062 63.2855L93.3437 67.7145L100.5 60.5407L107.656 67.7145L112.094 63.2855L104.906 56.1428L112.094 49.0002Z" fill="white"/>
</g>
<defs>
<clipPath id="clip0_289_1691">
<rect width="200" height="131" fill="white" transform="translate(0.5)"/>
</clipPath>
</defs>
</svg>
