<svg width="68" height="25" viewBox="0 0 68 25" fill="none" xmlns="http://www.w3.org/2000/svg">
<g clip-path="url(#clip0_270_6581)">
<path d="M5.78047 22.912C5.92411 23.1369 5.98017 23.39 5.94513 23.6607C5.89959 24.0157 5.73143 24.3251 5.44065 24.5957C5.14637 24.8664 4.72947 25 4.18295 25C3.58037 25 3.12494 24.8102 2.82365 24.434C2.51886 24.0579 2.36471 23.6642 2.36121 23.2494H3.09341C3.10041 23.5763 3.20902 23.8364 3.41922 24.0298C3.62592 24.2231 3.88166 24.318 4.18645 24.318C4.49124 24.318 4.71896 24.2512 4.8696 24.1212C5.02025 23.9876 5.11834 23.8294 5.16388 23.6396C5.19892 23.4849 5.1779 23.3584 5.09382 23.2529C5.00974 23.1475 4.89413 23.0596 4.74348 22.9858C4.5508 22.8909 4.3406 22.8346 4.11638 22.817C3.89217 22.7995 3.66095 22.7432 3.42973 22.6483C3.12143 22.5218 2.88671 22.3636 2.72555 22.1738C2.5644 21.9839 2.49433 21.7308 2.51185 21.411C2.52586 21.1051 2.666 20.8099 2.93576 20.5216C3.20551 20.2334 3.6119 20.0928 4.15142 20.0928C4.78202 20.0928 5.21644 20.2826 5.45817 20.6587C5.6999 21.0348 5.81551 21.3618 5.805 21.6395H5.0798C5.0763 21.4039 4.99923 21.1965 4.84858 21.0243C4.69794 20.8521 4.46672 20.7677 4.14791 20.7677C3.85363 20.7677 3.63993 20.838 3.5033 20.9786C3.37017 21.1192 3.3001 21.2704 3.2966 21.425C3.2931 21.6008 3.34915 21.7309 3.46476 21.8222C3.58037 21.9136 3.70299 21.9804 3.82561 22.0226C3.98326 22.0824 4.18645 22.1281 4.43869 22.1632C4.69093 22.1984 4.93967 22.2757 5.18491 22.3917C5.43364 22.5077 5.63333 22.68 5.77697 22.9049L5.78047 22.912Z" fill="white"/>
<path d="M16.2731 22.9999L16.2801 24.8172L15.5514 24.8032L15.5444 23.028L13.9083 20.2369L14.7176 20.244L15.9052 22.2406L17.0929 20.244L17.9091 20.2369L16.2731 22.9999Z" fill="white"/>
<path d="M30.0097 22.912C30.1569 23.1369 30.2094 23.39 30.1744 23.6607C30.1288 24.0157 29.9607 24.3251 29.6699 24.5957C29.3756 24.8664 28.9587 25 28.4122 25C27.8096 25 27.3542 24.8102 27.0529 24.434C26.7481 24.0579 26.594 23.6642 26.5905 23.2494H27.3227C27.3297 23.5763 27.4383 23.8364 27.6485 24.0298C27.8552 24.2231 28.1109 24.318 28.4157 24.318C28.7205 24.318 28.9482 24.2512 29.0989 24.1212C29.2495 23.9876 29.3476 23.8294 29.3931 23.6396C29.4282 23.4849 29.4036 23.3584 29.3231 23.2529C29.239 23.1475 29.1234 23.0596 28.9727 22.9858C28.78 22.8909 28.5734 22.8346 28.3456 22.817C28.1214 22.7995 27.8902 22.7432 27.659 22.6483C27.3507 22.5218 27.116 22.3636 26.9548 22.1738C26.7936 21.9839 26.7236 21.7308 26.7411 21.411C26.7551 21.1051 26.8952 20.8099 27.165 20.5216C27.4348 20.2334 27.8411 20.0928 28.3807 20.0928C29.0113 20.0928 29.4457 20.2826 29.6874 20.6587C29.9291 21.0348 30.0448 21.3618 30.0377 21.6395H29.3126C29.3091 21.4039 29.232 21.1965 29.0813 21.0243C28.9307 20.8521 28.6995 20.7677 28.3807 20.7677C28.0864 20.7677 27.8727 20.838 27.736 20.9786C27.6029 21.1192 27.5329 21.2704 27.5294 21.425C27.5258 21.6008 27.5819 21.7309 27.6975 21.8222C27.8131 21.9136 27.9357 21.9804 28.0584 22.0226C28.216 22.0824 28.4192 22.1281 28.6714 22.1632C28.9237 22.1984 29.1724 22.2757 29.4177 22.3917C29.6664 22.5077 29.8661 22.68 30.0097 22.9049V22.912Z" fill="white"/>
<path d="M40.3656 20.9224V24.8172L39.6334 24.8031L39.6264 20.9224H38.197V20.251H41.809V20.9224H40.3621H40.3656Z" fill="white"/>
<path d="M50.781 24.8031V20.251H53.9585L53.9726 20.9224H51.5062V22.1246L53.8569 22.1316V22.7889H51.5062V24.1353H54.0181L54.0251 24.8067L50.781 24.7996V24.8031Z" fill="white"/>
<path d="M66.6968 24.8031L66.6898 21.8293L65.6773 24.8067H64.8715L63.8661 21.8539V24.8137L63.1409 24.7996V20.2334L63.9922 20.2404L65.2709 23.8505L66.5391 20.2404L67.3974 20.2334V24.8067L66.6933 24.7996L66.6968 24.8031Z" fill="white"/>
<path d="M5.87512 8.95666V13.3823C5.87512 14.2365 5.92767 14.7743 6.03277 14.9958C6.13787 15.2172 6.32004 15.393 6.58279 15.5265C6.84554 15.6601 7.33601 15.7234 8.0577 15.7234V16.1558H0V15.7234C0.728696 15.7234 1.21917 15.6566 1.47841 15.5195C1.73766 15.3859 1.91984 15.2067 2.02494 14.9887C2.13004 14.7708 2.18259 14.2365 2.18259 13.3823V3.132C2.18259 2.27781 2.13004 1.73999 2.02494 1.51853C1.91984 1.29708 1.73766 1.12132 1.47491 0.987739C1.21216 0.854162 0.72169 0.790888 0 0.790888V0.358521H7.31149C9.21381 0.358521 10.6081 0.492098 11.491 0.755737C12.3738 1.01938 13.092 1.50799 13.649 2.21805C14.2061 2.92812 14.4863 3.76122 14.4863 4.71735C14.4863 5.88088 14.0694 6.84404 13.2321 7.60683C12.6996 8.08841 11.9499 8.45048 10.99 8.68951L14.7736 14.0361C15.2676 14.7286 15.6214 15.1575 15.8281 15.3297C16.1469 15.5687 16.5148 15.7023 16.9317 15.7234V16.1558H11.9744L6.9016 8.95666H5.86811H5.87512ZM5.87512 1.21271V8.1306H6.53725C7.61278 8.1306 8.41855 8.03217 8.95106 7.8318C9.48356 7.63495 9.90397 7.2764 10.2088 6.75967C10.5135 6.24294 10.6677 5.57154 10.6677 4.73844C10.6677 3.53625 10.3874 2.64691 9.82689 2.07042C9.26636 1.49744 8.36249 1.2092 7.1153 1.2092H5.87512V1.21271Z" fill="white"/>
<path d="M23.518 14.5493C22.1937 15.7199 21.0061 16.3069 19.9551 16.3069C19.335 16.3069 18.82 16.103 18.4101 15.6953C18.0002 15.2875 17.797 14.7778 17.797 14.1627C17.797 13.3331 18.1508 12.5843 18.8655 11.92C19.5767 11.2556 21.1287 10.3733 23.5215 9.26953V8.1763C23.5215 7.35375 23.4759 6.8335 23.3883 6.62259C23.3008 6.40817 23.1326 6.22186 22.8839 6.06368C22.6351 5.90549 22.3584 5.82464 22.0466 5.82464C21.5421 5.82464 21.1287 5.93713 20.8064 6.1621C20.6067 6.30271 20.5051 6.46441 20.5051 6.65071C20.5051 6.81241 20.6137 7.01629 20.8309 7.25532C21.1252 7.58927 21.2723 7.91266 21.2723 8.222C21.2723 8.60164 21.1322 8.92504 20.8484 9.19571C20.5646 9.46286 20.1968 9.59644 19.7379 9.59644C19.2509 9.59644 18.841 9.4488 18.5117 9.15353C18.1824 8.85825 18.0177 8.51376 18.0177 8.11655C18.0177 7.55763 18.2384 7.02332 18.6798 6.51362C19.1213 6.00392 19.7343 5.61373 20.5261 5.34306C21.3144 5.07239 22.1341 4.9353 22.9855 4.9353C24.0154 4.9353 24.8282 5.15324 25.4273 5.59264C26.0264 6.03204 26.4152 6.50659 26.5939 7.01981C26.7025 7.34672 26.7551 8.09545 26.7551 9.26953V13.4983C26.7551 13.9939 26.7726 14.3068 26.8146 14.4368C26.8532 14.5634 26.9127 14.6618 26.9898 14.7216C27.0669 14.7849 27.1579 14.813 27.256 14.813C27.4557 14.813 27.6624 14.6688 27.8726 14.3841L28.2195 14.6618C27.8341 15.2383 27.4312 15.6531 27.0178 15.9132C26.6044 16.1734 26.135 16.3034 25.606 16.3034C24.9859 16.3034 24.5024 16.1593 24.1556 15.8675C23.8087 15.5758 23.595 15.1364 23.518 14.5458V14.5493ZM23.518 13.6987V10.0534C22.5826 10.6053 21.8854 11.1958 21.43 11.8251C21.1287 12.2434 20.978 12.6687 20.978 13.094C20.978 13.4491 21.1042 13.7654 21.3599 14.0361C21.5526 14.247 21.8258 14.349 22.1727 14.349C22.558 14.349 23.01 14.131 23.518 13.6951V13.6987Z" fill="white"/>
<path d="M34.3959 16.5987L30.8925 8.52784C30.367 7.30807 29.9782 6.55934 29.7259 6.28164C29.4737 6.00042 29.1689 5.80709 28.8151 5.69811V5.26575H34.5851V5.69811C34.2067 5.71218 33.9405 5.78599 33.7828 5.91957C33.6287 6.05315 33.5516 6.21133 33.5516 6.39764C33.5516 6.69291 33.7443 7.27643 34.1331 8.14468L35.9899 12.4086L37.2546 9.11136C37.7101 7.93729 37.9378 7.12528 37.9378 6.66479C37.9378 6.37655 37.8432 6.14806 37.654 5.97581C37.4648 5.80357 37.1285 5.71218 36.6486 5.69811V5.26575H40.2815V5.69811C39.9242 5.73678 39.6369 5.87387 39.4127 6.11291C39.1885 6.34842 38.8136 7.15692 38.2881 8.53135L35.1877 16.6022C34.4064 18.6199 33.8249 19.8643 33.4465 20.3283C32.914 20.9821 32.2413 21.3055 31.4391 21.3055C30.798 21.3055 30.276 21.1227 29.8766 20.7537C29.4772 20.3846 29.2775 19.9416 29.2775 19.4214C29.2775 18.9715 29.4141 18.5988 29.6909 18.3036C29.9642 18.0083 30.304 17.8607 30.7069 17.8607C31.1098 17.8607 31.404 17.9837 31.6423 18.2333C31.877 18.4828 31.9996 18.866 32.0066 19.3862C32.0136 19.6815 32.0487 19.8713 32.1117 19.9557C32.1748 20.0401 32.2624 20.0858 32.378 20.0858C32.5636 20.0858 32.7598 19.9733 32.97 19.7483C33.2783 19.4214 33.6427 18.6762 34.0596 17.5127L34.3959 16.6057V16.5987Z" fill="white"/>
<path d="M46.0621 6.40467V13.9623C46.0621 14.6935 46.1391 15.1504 46.2933 15.3368C46.542 15.625 46.9975 15.7551 47.6631 15.734V16.1523H41.266V15.734C41.753 15.7269 42.0998 15.6707 42.3065 15.5652C42.5097 15.4598 42.6533 15.3157 42.7304 15.1294C42.8075 14.9431 42.846 14.5564 42.846 13.9658V6.40818H41.266V5.26575H42.846V4.46077L42.8355 3.9124C42.8355 2.79457 43.2454 1.86305 44.0617 1.11783C44.8779 0.37261 45.9815 0 47.3758 0C48.3287 0 49.0329 0.179274 49.4919 0.534308C49.9508 0.892857 50.182 1.28656 50.182 1.72244C50.182 2.07044 50.0384 2.37627 49.7511 2.63287C49.4638 2.88948 49.0855 3.01603 48.6125 3.01603C48.2096 3.01603 47.8908 2.91057 47.6561 2.70318C47.4214 2.49227 47.3023 2.26026 47.3023 2.00366C47.3023 1.93335 47.3268 1.78923 47.3723 1.57129C47.4039 1.43771 47.4179 1.31468 47.4179 1.19868C47.4179 1.03698 47.3723 0.913948 47.2777 0.836614C47.1551 0.720613 47.001 0.660855 46.8258 0.660855C46.6016 0.660855 46.4124 0.75225 46.2618 0.938555C46.1111 1.12486 46.034 1.42365 46.034 1.83493L46.0586 3.87373V5.25872H47.6596V6.40115H46.0586L46.0621 6.40467Z" fill="white"/>
<path d="M59.7006 5.26572V13.7936C59.7006 14.6231 59.7777 15.1434 59.9318 15.3473C60.086 15.5547 60.4013 15.6847 60.8707 15.7375V16.1558H56.4495V14.7005C55.931 15.3227 55.4125 15.7726 54.894 16.0573C54.3755 16.3421 53.794 16.4827 53.1529 16.4827C52.5117 16.4827 51.9967 16.2929 51.5203 15.9167C51.0438 15.5406 50.725 15.1012 50.5639 14.595C50.4027 14.0924 50.3186 13.21 50.3186 11.9516V7.63144C50.3186 6.80889 50.2416 6.29567 50.0909 6.09531C49.9403 5.89494 49.625 5.76136 49.145 5.69809V5.26572H53.5662V12.7074C53.5662 13.4842 53.6013 13.9869 53.6749 14.2084C53.7484 14.4333 53.864 14.6056 54.0217 14.7216C54.1793 14.8376 54.365 14.8973 54.5717 14.8973C54.8485 14.8973 55.1007 14.8235 55.3249 14.6759C55.6332 14.4755 56.0046 14.0677 56.439 13.4526V7.62793C56.439 6.80537 56.3654 6.29216 56.2113 6.09179C56.0606 5.89143 55.7453 5.75785 55.2654 5.69458V5.26221H59.6866L59.7006 5.26572Z" fill="white"/>
<path d="M66.6898 0.362061V13.8955C66.6898 14.6653 66.7773 15.154 66.956 15.3684C67.1347 15.5828 67.4815 15.7058 68 15.734V16.1523H62.1389V15.734C62.6189 15.7199 62.9762 15.5793 63.2074 15.3157C63.3616 15.1364 63.4387 14.6618 63.4387 13.8955V2.62232C63.4387 1.86304 63.3511 1.37443 63.1724 1.16001C62.9937 0.945581 62.6504 0.82255 62.1389 0.794428V0.362061H66.6898Z" fill="white"/>
</g>
<defs>
<clipPath id="clip0_270_6581">
<rect width="68" height="25" fill="white"/>
</clipPath>
</defs>
</svg>
