<svg width="88" height="38" viewBox="0 0 88 38" fill="none" xmlns="http://www.w3.org/2000/svg">
<g filter="url(#filter0_d_16_557)">
<g clip-path="url(#clip0_16_557)">
<path d="M10.8005 26.8645C10.9695 27.1283 11.0354 27.425 10.9942 27.7424C10.9406 28.1586 10.7428 28.5214 10.4007 28.8387C10.0545 29.1561 9.56402 29.3127 8.92106 29.3127C8.21214 29.3127 7.67634 29.0901 7.32188 28.6491C6.9633 28.2081 6.78195 27.7465 6.77783 27.2601H7.63924C7.64749 27.6435 7.77526 27.9485 8.02255 28.1751C8.26573 28.4018 8.5666 28.5131 8.92518 28.5131C9.28376 28.5131 9.55166 28.4348 9.72889 28.2823C9.90612 28.1257 10.0215 27.9402 10.0751 27.7176C10.1163 27.5363 10.0916 27.3879 9.99267 27.2643C9.89375 27.1406 9.75774 27.0376 9.58051 26.951C9.35382 26.8397 9.10653 26.7738 8.84275 26.7532C8.57897 26.7326 8.30694 26.6666 8.03492 26.5554C7.67222 26.407 7.39607 26.2215 7.20648 25.9989C7.01688 25.7764 6.93445 25.4796 6.95506 25.1046C6.97155 24.746 7.13641 24.3998 7.45377 24.0618C7.77113 23.7238 8.24924 23.559 8.88396 23.559C9.62585 23.559 10.1369 23.7815 10.4213 24.2225C10.7057 24.6635 10.8417 25.0469 10.8294 25.3725H9.97618C9.97206 25.0963 9.88139 24.8531 9.70416 24.6512C9.52693 24.4492 9.25491 24.3503 8.87984 24.3503C8.53363 24.3503 8.28221 24.4327 8.12147 24.5976C7.96485 24.7625 7.88242 24.9397 7.8783 25.121C7.87417 25.3271 7.94012 25.4796 8.07613 25.5868C8.21214 25.6939 8.3564 25.7723 8.50066 25.8217C8.68613 25.8918 8.92518 25.9454 9.22193 25.9866C9.51869 26.0278 9.81132 26.1185 10.0998 26.2545C10.3925 26.3905 10.6274 26.5924 10.7964 26.8562L10.8005 26.8645Z" fill="white"/>
<path d="M23.1449 26.9675L23.1531 29.0984L22.2958 29.0819L22.2876 27.0005L20.3628 23.728L21.3149 23.7362L22.7121 26.0773L24.1093 23.7362L25.0696 23.728L23.1449 26.9675Z" fill="white"/>
<path d="M39.3056 26.8645C39.4787 27.1283 39.5406 27.425 39.4993 27.7424C39.4458 28.1586 39.2479 28.5214 38.9058 28.8387C38.5596 29.1561 38.0692 29.3127 37.4262 29.3127C36.7173 29.3127 36.1815 29.0901 35.827 28.6491C35.4684 28.2081 35.2871 27.7465 35.283 27.2601H36.1444C36.1526 27.6435 36.2804 27.9485 36.5277 28.1751C36.7709 28.4018 37.0717 28.5131 37.4303 28.5131C37.7889 28.5131 38.0568 28.4348 38.234 28.2823C38.4112 28.1257 38.5266 27.9402 38.5802 27.7176C38.6214 27.5363 38.5926 27.3879 38.4978 27.2643C38.3989 27.1406 38.2629 27.0376 38.0856 26.951C37.8589 26.8397 37.6158 26.7738 37.3479 26.7532C37.0841 26.7326 36.8121 26.6666 36.54 26.5554C36.1773 26.407 35.9012 26.2215 35.7116 25.9989C35.522 25.7764 35.4396 25.4796 35.4602 25.1046C35.4767 24.746 35.6415 24.3998 35.9589 24.0618C36.2763 23.7238 36.7544 23.559 37.3891 23.559C38.131 23.559 38.6421 23.7815 38.9264 24.2225C39.2108 24.6635 39.3468 25.0469 39.3386 25.3725H38.4854C38.4813 25.0963 38.3906 24.8531 38.2134 24.6512C38.0362 24.4492 37.7642 24.3503 37.3891 24.3503C37.0429 24.3503 36.7915 24.4327 36.6307 24.5976C36.4741 24.7625 36.3917 24.9397 36.3875 25.121C36.3834 25.3271 36.4494 25.4796 36.5854 25.5868C36.7214 25.6939 36.8656 25.7723 37.0099 25.8217C37.1954 25.8918 37.4344 25.9454 37.7312 25.9866C38.0279 26.0278 38.3206 26.1185 38.6091 26.2545C38.9017 26.3905 39.1366 26.5924 39.3056 26.8562V26.8645Z" fill="white"/>
<path d="M51.489 24.5317V29.0984L50.6276 29.0819L50.6194 24.5317H48.9377V23.7444H53.1871V24.5317H51.4849H51.489Z" fill="white"/>
<path d="M63.7424 29.0819V23.7444H67.4807L67.4972 24.5317H64.5956V25.9413L67.3612 25.9495V26.7202H64.5956V28.2988H67.5508L67.559 29.086L63.7424 29.0778V29.0819Z" fill="white"/>
<path d="M82.4669 29.0819L82.4586 25.5951L81.2675 29.0861H80.3195L79.1366 25.6239V29.0943L78.2834 29.0778V23.7239L79.285 23.7321L80.7894 27.965L82.2814 23.7321L83.2912 23.7239V29.0861L82.4627 29.0778L82.4669 29.0819Z" fill="white"/>
<path d="M10.9119 10.5018V15.6909C10.9119 16.6924 10.9737 17.323 11.0974 17.5827C11.221 17.8424 11.4353 18.0484 11.7445 18.2051C12.0536 18.3617 12.6306 18.4359 13.4797 18.4359V18.9428H4V18.4359C4.85729 18.4359 5.43431 18.3576 5.73931 18.1968C6.04431 18.0402 6.25863 17.83 6.38228 17.5745C6.50592 17.3189 6.56775 16.6924 6.56775 15.6909V3.67234C6.56775 2.6708 6.50592 2.04019 6.38228 1.78053C6.25863 1.52087 6.04431 1.31479 5.73519 1.15817C5.42607 1.00155 4.84905 0.927365 4 0.927365V0.42041H12.6018C14.8398 0.42041 16.4802 0.57703 17.5188 0.886149C18.5574 1.19527 19.4024 1.76817 20.0577 2.60073C20.713 3.43329 21.0428 4.41011 21.0428 5.53118C21.0428 6.89542 20.5523 8.02474 19.5672 8.91912C18.9408 9.48378 18.0587 9.9083 16.9294 10.1886L21.3807 16.4575C21.9619 17.2695 22.3782 17.7723 22.6213 17.9742C22.9964 18.2545 23.4292 18.4111 23.9196 18.4359V18.9428H18.0876L12.1195 10.5018H10.9037H10.9119ZM10.9119 1.42196V9.53324H11.6909C12.9562 9.53324 13.9042 9.41783 14.5307 9.1829C15.1571 8.9521 15.6517 8.53169 16.0103 7.92582C16.3689 7.31995 16.5502 6.53272 16.5502 5.55591C16.5502 4.14632 16.2205 3.10356 15.5611 2.42762C14.9016 1.7558 13.8382 1.41783 12.3709 1.41783H10.9119V1.42196Z" fill="white"/>
<path d="M31.6683 17.0592C30.1103 18.4317 28.7131 19.12 27.4766 19.12C26.7471 19.12 26.1412 18.881 25.659 18.4029C25.1768 17.9248 24.9377 17.3271 24.9377 16.6058C24.9377 15.6332 25.354 14.7553 26.1948 13.9763C27.0315 13.1973 28.8574 12.1628 31.6724 10.8686V9.58679C31.6724 8.62233 31.6188 8.01234 31.5158 7.76504C31.4128 7.51363 31.2149 7.29518 30.9223 7.10971C30.6297 6.92424 30.3041 6.82944 29.9372 6.82944C29.3437 6.82944 28.8574 6.96133 28.4782 7.22512C28.2433 7.38998 28.1237 7.57957 28.1237 7.79802C28.1237 7.98761 28.2515 8.22666 28.507 8.50693C28.8533 8.89848 29.0264 9.27767 29.0264 9.64037C29.0264 10.0855 28.8615 10.4647 28.5276 10.782C28.1938 11.0953 27.761 11.2519 27.2211 11.2519C26.6482 11.2519 26.166 11.0788 25.7785 10.7326C25.3911 10.3864 25.1974 9.98246 25.1974 9.51672C25.1974 8.86139 25.4571 8.23491 25.9764 7.63727C26.4957 7.03964 27.217 6.58215 28.1485 6.26479C29.0758 5.94742 30.0403 5.78668 31.0418 5.78668C32.2536 5.78668 33.2098 6.04222 33.9146 6.55742C34.6194 7.07262 35.0768 7.62903 35.2871 8.23078C35.4148 8.61409 35.4766 9.49199 35.4766 10.8686V15.8269C35.4766 16.408 35.4972 16.7748 35.5467 16.9273C35.592 17.0757 35.6621 17.1911 35.7528 17.2612C35.8435 17.3354 35.9506 17.3683 36.066 17.3683C36.301 17.3683 36.5441 17.1994 36.7914 16.8655L37.1995 17.1911C36.7461 17.8671 36.2721 18.3534 35.7858 18.6584C35.2994 18.9634 34.7471 19.1159 34.1248 19.1159C33.3952 19.1159 32.8265 18.9469 32.4184 18.6048C32.0104 18.2627 31.759 17.7475 31.6683 17.0551V17.0592ZM31.6683 16.0618V11.7877C30.5678 12.4348 29.7476 13.1272 29.2118 13.865C28.8574 14.3555 28.6801 14.8542 28.6801 15.3529C28.6801 15.7692 28.8285 16.1401 29.1294 16.4575C29.3561 16.7048 29.6776 16.8243 30.0856 16.8243C30.539 16.8243 31.0707 16.5688 31.6683 16.0577V16.0618Z" fill="white"/>
<path d="M44.4658 19.4621L40.3442 9.99897C39.726 8.56878 39.2685 7.69088 38.9718 7.36527C38.675 7.03555 38.3164 6.80886 37.9001 6.68109V6.17413H44.6884V6.68109C44.2433 6.69757 43.93 6.78413 43.7446 6.94075C43.5632 7.09737 43.4725 7.28284 43.4725 7.50128C43.4725 7.8475 43.6992 8.53168 44.1567 9.54971L46.3412 14.5492L47.829 10.6831C48.3649 9.30654 48.6328 8.35445 48.6328 7.81452C48.6328 7.47655 48.5215 7.20865 48.2989 7.00669C48.0763 6.80474 47.6807 6.69757 47.116 6.68109V6.17413H51.3901V6.68109C50.9697 6.72643 50.6317 6.88717 50.3679 7.16744C50.1042 7.44358 49.6632 8.39155 49.0449 10.0031L45.3973 19.4663C44.4782 21.832 43.794 23.2911 43.3489 23.8351C42.7224 24.6017 41.9311 24.9809 40.9872 24.9809C40.233 24.9809 39.6188 24.7666 39.149 24.3338C38.6791 23.9011 38.4442 23.3818 38.4442 22.7718C38.4442 22.2442 38.6049 21.8073 38.9305 21.4611C39.252 21.1149 39.6518 20.9418 40.1258 20.9418C40.5998 20.9418 40.946 21.086 41.2263 21.3787C41.5024 21.6713 41.6467 22.1206 41.6549 22.7305C41.6632 23.0768 41.7044 23.2993 41.7786 23.3982C41.8527 23.4972 41.9558 23.5507 42.0918 23.5507C42.3102 23.5507 42.5411 23.4189 42.7883 23.1551C43.151 22.7718 43.5797 21.898 44.0702 20.5337L44.4658 19.4704V19.4621Z" fill="white"/>
<path d="M58.1905 7.50953V16.3709C58.1905 17.2282 58.2812 17.764 58.4626 17.9825C58.7552 18.3205 59.291 18.4729 60.0741 18.4482V18.9387H52.5481V18.4482C53.121 18.44 53.529 18.374 53.7722 18.2504C54.0113 18.1267 54.1802 17.9578 54.2709 17.7393C54.3616 17.5209 54.4069 17.0675 54.4069 16.3751V7.51365H52.5481V6.17414H54.4069V5.23029L54.3946 4.58733C54.3946 3.27666 54.8768 2.18444 55.8371 1.31066C56.7974 0.436888 58.0957 0 59.7361 0C60.8572 0 61.6857 0.210201 62.2256 0.626481C62.7655 1.04688 63.0375 1.5085 63.0375 2.01958C63.0375 2.42761 62.8685 2.78619 62.5306 3.08707C62.1926 3.38794 61.7475 3.53632 61.1911 3.53632C60.7171 3.53632 60.342 3.41267 60.0659 3.1695C59.7897 2.9222 59.6496 2.65018 59.6496 2.3493C59.6496 2.26687 59.6784 2.09789 59.732 1.84235C59.7691 1.68573 59.7856 1.54147 59.7856 1.40546C59.7856 1.21587 59.732 1.07161 59.6207 0.980938C59.4765 0.844925 59.2951 0.774858 59.0891 0.774858C58.8253 0.774858 58.6027 0.88202 58.4255 1.10046C58.2483 1.31891 58.1576 1.66924 58.1576 2.15147L58.1864 4.54199V6.16589H60.07V7.50541H58.1864L58.1905 7.50953Z" fill="white"/>
<path d="M74.236 6.17417V16.1731C74.236 17.1458 74.3266 17.7558 74.508 17.9949C74.6893 18.238 75.0603 18.3905 75.6126 18.4524V18.9428H70.4111V17.2365C69.8011 17.966 69.1911 18.4936 68.5812 18.8274C67.9712 19.1613 67.287 19.3261 66.5327 19.3261C65.7785 19.3261 65.1726 19.1036 64.6121 18.6626C64.0515 18.2216 63.6765 17.7064 63.4869 17.1129C63.2973 16.5235 63.1984 15.489 63.1984 14.0134V8.94799C63.1984 7.98354 63.1077 7.38179 62.9305 7.14686C62.7532 6.91193 62.3823 6.75531 61.8176 6.68112V6.17417H67.0191V14.8996C67.0191 15.8104 67.0603 16.3998 67.1468 16.6595C67.2334 16.9233 67.3694 17.1252 67.5549 17.2612C67.7403 17.3972 67.9588 17.4673 68.202 17.4673C68.5276 17.4673 68.8243 17.3808 69.0881 17.2077C69.4508 16.9727 69.8877 16.4946 70.3988 15.7733V8.94387C70.3988 7.97942 70.3122 7.37767 70.1309 7.14274C69.9536 6.90781 69.5827 6.75119 69.018 6.677V6.17004H74.2195L74.236 6.17417Z" fill="white"/>
<path d="M82.4584 0.4245V16.2926C82.4584 17.1952 82.5615 17.7681 82.7717 18.0196C82.9819 18.271 83.3899 18.4152 83.9999 18.4482V18.9387H77.1045V18.4482C77.6691 18.4317 78.0896 18.2668 78.3616 17.9577C78.5429 17.7475 78.6336 17.1911 78.6336 16.2926V3.07468C78.6336 2.18442 78.5306 1.61152 78.3204 1.3601C78.1102 1.10868 77.7062 0.964427 77.1045 0.931455V0.4245H82.4584Z" fill="white"/>
</g>
<rect x="4.5" y="0.5" width="79" height="28.3127" stroke="black" shape-rendering="crispEdges"/>
</g>
<defs>
<filter id="filter0_d_16_557" x="0" y="0" width="88" height="37.3127" filterUnits="userSpaceOnUse" color-interpolation-filters="sRGB">
<feFlood flood-opacity="0" result="BackgroundImageFix"/>
<feColorMatrix in="SourceAlpha" type="matrix" values="0 0 0 0 0 0 0 0 0 0 0 0 0 0 0 0 0 0 127 0" result="hardAlpha"/>
<feOffset dy="4"/>
<feGaussianBlur stdDeviation="2"/>
<feComposite in2="hardAlpha" operator="out"/>
<feColorMatrix type="matrix" values="0 0 0 0 0 0 0 0 0 0 0 0 0 0 0 0 0 0 0.25 0"/>
<feBlend mode="normal" in2="BackgroundImageFix" result="effect1_dropShadow_16_557"/>
<feBlend mode="normal" in="SourceGraphic" in2="effect1_dropShadow_16_557" result="shape"/>
</filter>
<clipPath id="clip0_16_557">
<rect x="4" width="80" height="29.3127" fill="white"/>
</clipPath>
</defs>
</svg>
