<svg width="10" height="7" viewBox="0 0 10 7" fill="none" xmlns="http://www.w3.org/2000/svg">
<path d="M9.77988 0.80644C9.6389 0.663611 9.44771 0.583374 9.24837 0.583374C9.04902 0.583374 8.85783 0.663611 8.71685 0.80644L4.99546 4.57771L1.27408 0.80644C1.13229 0.667658 0.94238 0.590866 0.745262 0.592602C0.548143 0.594337 0.359584 0.674463 0.220195 0.81572C0.0808067 0.956978 0.00174138 1.14806 2.85768e-05 1.34783C-0.00168423 1.54759 0.0740928 1.74004 0.211038 1.88373L4.46394 6.19364C4.60492 6.33647 4.79611 6.41671 4.99546 6.41671C5.19481 6.41671 5.386 6.33647 5.52698 6.19364L9.77988 1.88373C9.92082 1.74086 10 1.54711 10 1.34508C10 1.14306 9.92082 0.949312 9.77988 0.80644Z" fill="#008CF1"/>
</svg>
