<svg width="14" height="14" viewBox="0 0 14 14" fill="none" xmlns="http://www.w3.org/2000/svg">
<g clip-path="url(#clip0_268_831)">
<path d="M13.3158 7.1579C13.3158 5.93998 12.9546 4.74942 12.278 3.73675C11.6014 2.72409 10.6396 1.93482 9.51442 1.46874C8.38921 1.00267 7.15107 0.880721 5.95655 1.11832C4.76204 1.35593 3.66481 1.94241 2.80361 2.80361C1.94241 3.66481 1.35593 4.76204 1.11832 5.95655C0.880721 7.15107 1.00267 8.38921 1.46874 9.51442C1.93482 10.6396 2.72409 11.6014 3.73675 12.278C4.74942 12.9546 5.93998 13.3158 7.1579 13.3158M1.41053 5.10527H12.9053M1.41053 9.21053H6.81579" stroke="#3C3C3C" stroke-linecap="round" stroke-linejoin="round"/>
<path d="M6.81576 1C5.66309 2.8471 5.052 4.98064 5.052 7.15789C5.052 9.33515 5.66309 11.4687 6.81576 13.3158M7.49997 1C8.60598 2.77215 9.21434 4.80945 9.26112 6.89789M12.7684 12.7684L14 14M9.21049 11.2632C9.21049 11.8075 9.42675 12.3296 9.81169 12.7146C10.1966 13.0995 10.7187 13.3158 11.2631 13.3158C11.8075 13.3158 12.3296 13.0995 12.7146 12.7146C13.0995 12.3296 13.3158 11.8075 13.3158 11.2632C13.3158 10.7188 13.0995 10.1967 12.7146 9.81173C12.3296 9.42678 11.8075 9.21053 11.2631 9.21053C10.7187 9.21053 10.1966 9.42678 9.81169 9.81173C9.42675 10.1967 9.21049 10.7188 9.21049 11.2632Z" stroke="#3C3C3C" stroke-linecap="round" stroke-linejoin="round"/>
</g>
<defs>
<clipPath id="clip0_268_831">
<rect width="14" height="14" fill="white"/>
</clipPath>
</defs>
</svg>
