<?xml version="1.0" standalone="no"?>
<!DOCTYPE svg PUBLIC "-//W3C//DTD SVG 20010904//EN"
 "http://www.w3.org/TR/2001/REC-SVG-20010904/DTD/svg10.dtd">
<svg version="1.0" xmlns="http://www.w3.org/2000/svg"
 width="24.000000pt" height="24.000000pt" viewBox="0 0 24.000000 24.000000"
 preserveAspectRatio="xMidYMid meet">

<g transform="translate(0.000000,24.000000) scale(0.100000,-0.100000)"
fill="#000000" stroke="none">
<path d="M24 217 c-3 -8 -3 -56 -2 -108 l3 -94 98 -3 97 -3 0 111 0 110 -95 0
c-70 0 -97 -4 -101 -13z m184 -74 l3 -73 -76 0 -75 0 -2 73 -2 72 -3 -72 c-5
-87 -23 -98 -23 -14 0 92 0 92 94 89 l81 -3 3 -72z m-75 -90 c-40 -2 -73 -8
-73 -13 0 -6 33 -11 73 -12 l72 -2 -65 -3 c-80 -5 -111 2 -104 22 5 12 23 15
88 13 l81 -2 -72 -3z"/>
</g>
</svg>
