<svg width="18" height="18" viewBox="0 0 18 18" fill="none" xmlns="http://www.w3.org/2000/svg">
<path d="M10.4265 1.30566V2.9161C12.339 2.92679 14.5648 2.89641 16.4756 2.9251C16.8368 2.9251 16.8525 3.2446 16.857 3.5236C16.8874 6.86598 16.8497 10.3045 16.875 13.6486C16.8682 13.7802 16.8716 14.2674 16.8677 14.4057C16.8553 14.8687 16.6236 14.8889 16.1606 14.903C16.0864 14.903 15.8681 14.9064 15.7961 14.9097C14.0068 14.9007 12.2175 14.9047 10.4265 14.9047V16.6945L1.125 15.263V2.74116L10.4265 1.30566Z" fill="#D33922"/>
<path d="M10.4265 3.45264H16.3327V14.3651H10.4265V12.9375H14.7206V12.2203H10.4265V11.3259H14.7206V10.6104H10.4282C10.4289 10.2594 10.4278 9.90882 10.4248 9.55857C10.7762 9.6852 11.1513 9.73197 11.523 9.69548C11.8947 9.659 12.2535 9.54017 12.5736 9.34764C12.8998 9.1334 13.17 8.84424 13.3617 8.5043C13.5534 8.16436 13.661 7.7835 13.6755 7.39351C12.888 7.38789 12.1044 7.39014 11.3209 7.39014C11.3209 6.61164 11.3299 5.8337 11.3046 5.05689C11.0109 5.11314 10.7179 5.17501 10.4259 5.23745V3.4532" fill="white"/>
<path d="M11.6809 4.68213C12.291 4.72036 12.8664 4.97929 13.2997 5.41059C13.733 5.84189 13.9945 6.4161 14.0355 7.02607C13.248 7.03507 12.4644 7.03169 11.6792 7.03169V4.68213" fill="#D33922"/>
<path d="M3.99372 6.03355C4.96516 6.08024 6.14247 5.6488 6.94797 6.37724C7.71916 7.31324 7.51497 9.03449 6.37197 9.59418C5.95638 9.75875 5.50584 9.81526 5.06247 9.75843C5.06247 10.4582 5.0591 11.1579 5.06247 11.8571C4.70735 11.8264 4.35241 11.7966 3.99766 11.7677C3.98135 9.85518 3.97797 7.94268 3.99766 6.03018" fill="white"/>
<path d="M5.05861 7.00073C5.4113 6.98441 5.84611 6.92029 6.08573 7.25104C6.18189 7.43103 6.2341 7.63121 6.23811 7.83524C6.24212 8.03927 6.19781 8.24135 6.1088 8.42497C5.90461 8.79341 5.44336 8.75797 5.0873 8.80072C5.04961 8.2011 5.05355 7.60204 5.05861 7.00073Z" fill="#D33922"/>
</svg>
