<svg width="18" height="18" viewBox="0 0 18 18" fill="none" xmlns="http://www.w3.org/2000/svg">
<path d="M16.2033 1.6875H5.45903C5.37093 1.68728 5.28366 1.70445 5.20222 1.73803C5.12078 1.7716 5.04676 1.82092 4.98442 1.88316C4.92207 1.9454 4.87263 2.01933 4.83892 2.10072C4.8052 2.18211 4.78789 2.26935 4.78796 2.35744V5.34375L11.0143 7.17188L16.875 5.34375V2.35744C16.875 2.2693 16.8577 2.18201 16.824 2.10059C16.7902 2.01916 16.7407 1.94521 16.6783 1.88296C16.6159 1.82071 16.5418 1.7714 16.4603 1.73786C16.3788 1.70432 16.2915 1.68721 16.2033 1.6875Z" fill="#41A5EE"/>
<path d="M16.875 5.34375H4.78796V9L11.0143 10.0969L16.875 9V5.34375Z" fill="#2B7CD3"/>
<path d="M4.78796 9V12.6562L10.6481 13.3875L16.875 12.6562V9H4.78796Z" fill="#185ABD"/>
<path d="M5.45903 16.3125H16.2028C16.291 16.3129 16.3784 16.2958 16.4599 16.2623C16.5415 16.2288 16.6157 16.1795 16.6781 16.1172C16.7406 16.055 16.7901 15.981 16.8239 15.8995C16.8577 15.8181 16.875 15.7308 16.875 15.6426V12.6562H4.78796V15.6426C4.78789 15.7307 4.8052 15.8179 4.83892 15.8993C4.87263 15.9807 4.92207 16.0546 4.98442 16.1168C5.04676 16.1791 5.12078 16.2284 5.20222 16.262C5.28366 16.2956 5.37093 16.3127 5.45903 16.3125Z" fill="#103F91"/>
<path opacity="0.1" d="M9.24409 4.6123H4.78796V13.7529H9.24409C9.42165 13.752 9.59171 13.6812 9.71743 13.5558C9.84314 13.4304 9.91438 13.2606 9.91571 13.083V5.28224C9.91438 5.10468 9.84314 4.9348 9.71743 4.8094C9.59171 4.684 9.42165 4.61319 9.24409 4.6123Z" fill="black"/>
<path opacity="0.2" d="M8.8779 4.97803H4.78796V14.1187H8.8779C9.05546 14.1178 9.22553 14.047 9.35124 13.9216C9.47696 13.7962 9.5482 13.6263 9.54953 13.4487V5.64796C9.5482 5.47041 9.47696 5.30052 9.35124 5.17512C9.22553 5.04972 9.05546 4.97891 8.8779 4.97803Z" fill="black"/>
<path opacity="0.2" d="M8.8779 4.97803H4.78796V13.3874H8.8779C9.05546 13.3865 9.22553 13.3157 9.35124 13.1903C9.47696 13.0649 9.5482 12.895 9.54953 12.7175V5.64796C9.5482 5.47041 9.47696 5.30052 9.35124 5.17512C9.22553 5.04972 9.05546 4.97891 8.8779 4.97803Z" fill="black"/>
<path opacity="0.2" d="M8.51171 4.97803H4.78796V13.3874H8.51171C8.68928 13.3865 8.85934 13.3157 8.98505 13.1903C9.11077 13.0649 9.18201 12.895 9.18334 12.7175V5.64796C9.18201 5.47041 9.11077 5.30052 8.98505 5.17512C8.85934 5.04972 8.68928 4.97891 8.51171 4.97803Z" fill="black"/>
<path d="M1.79663 4.97803H8.51175C8.68963 4.97788 8.86029 5.04836 8.98623 5.17398C9.11217 5.29961 9.18308 5.47009 9.18338 5.64797V12.3518C9.18308 12.5297 9.11217 12.7002 8.98623 12.8258C8.86029 12.9514 8.68963 13.0219 8.51175 13.0218H1.79663C1.70849 13.0221 1.62115 13.005 1.53965 12.9714C1.45814 12.9379 1.38405 12.8886 1.32165 12.8263C1.25925 12.7641 1.20975 12.6901 1.17601 12.6087C1.14226 12.5273 1.12493 12.44 1.125 12.3518V5.64797C1.12493 5.55983 1.14226 5.47254 1.17601 5.39112C1.20975 5.30969 1.25925 5.23573 1.32165 5.17349C1.38405 5.11124 1.45814 5.06193 1.53965 5.02839C1.62115 4.99485 1.70849 4.97773 1.79663 4.97803Z" fill="url(#paint0_linear_250_1237)"/>
<path d="M3.88131 10.1181C3.89443 10.2216 3.90306 10.3118 3.90718 10.3887H3.92293C3.92856 10.3156 3.94075 10.2274 3.9595 10.1243C3.98762 9.96963 3.99437 9.9342 4.00956 9.86276L4.7155 6.82132H5.629L6.36025 9.81719C6.40247 10.0026 6.43291 10.1905 6.45137 10.3797H6.46375C6.47778 10.1955 6.50314 10.0123 6.53968 9.83126L7.12412 6.81738H7.95493L6.92893 11.1756H5.9575L5.26168 8.29226C5.24143 8.20901 5.21856 8.10063 5.19306 7.96713C5.16756 7.83363 5.15181 7.73613 5.14581 7.67463H5.134C5.12612 7.74551 5.11037 7.8507 5.08675 7.9902C5.06312 8.1297 5.04437 8.2332 5.0305 8.3007L4.37631 11.1773H3.38856L2.35693 6.82132H3.20068L3.83687 9.86895C3.85542 9.9513 3.87024 10.0344 3.88131 10.1181Z" fill="white"/>
<defs>
<linearGradient id="paint0_linear_250_1237" x1="2.52788" y1="4.45153" x2="7.7805" y2="13.5483" gradientUnits="userSpaceOnUse">
<stop stop-color="#2368C4"/>
<stop offset="0.5" stop-color="#1A5DBE"/>
<stop offset="1" stop-color="#1146AC"/>
</linearGradient>
</defs>
</svg>
