<svg width="16" height="14" viewBox="0 0 16 14" fill="none" xmlns="http://www.w3.org/2000/svg">
<path d="M8.80781 13.0672C8.7497 13.0091 8.7036 12.9402 8.67215 12.8643C8.64069 12.7884 8.6245 12.7071 8.6245 12.625C8.6245 12.5428 8.64069 12.4615 8.67215 12.3856C8.7036 12.3098 8.7497 12.2408 8.80781 12.1828L13.3664 7.62498L1.125 7.62498C0.959237 7.62498 0.800265 7.55913 0.683055 7.44192C0.565844 7.32471 0.499997 7.16574 0.499997 6.99998C0.499997 6.83422 0.565844 6.67525 0.683055 6.55804C0.800265 6.44083 0.959237 6.37498 1.125 6.37498L13.3664 6.37498L8.80781 1.81717C8.69053 1.69989 8.62465 1.54083 8.62465 1.37498C8.62465 1.20913 8.69053 1.05007 8.80781 0.932794C8.92508 0.815518 9.08414 0.749634 9.25 0.749634C9.41585 0.749634 9.57491 0.815518 9.69218 0.932794L15.3172 6.55779C15.3753 6.61584 15.4214 6.68477 15.4528 6.76064C15.4843 6.83652 15.5005 6.91785 15.5005 6.99998C15.5005 7.08212 15.4843 7.16344 15.4528 7.23932C15.4214 7.31519 15.3753 7.38412 15.3172 7.44217L9.69218 13.0672C9.63414 13.1253 9.56521 13.1714 9.48933 13.2028C9.41346 13.2343 9.33213 13.2505 9.25 13.2505C9.16786 13.2505 9.08653 13.2343 9.01066 13.2028C8.93478 13.1714 8.86585 13.1253 8.80781 13.0672Z" fill="#3C3C3C"/>
</svg>
