<svg width="14" height="14" viewBox="0 0 14 14" fill="none" xmlns="http://www.w3.org/2000/svg">
<path d="M4.375 6.41667C2.91667 6.41667 1.75 7.58333 1.75 9.04167C1.75 9.555 1.89583 10.0392 2.1525 10.4417L0.355835 12.25L1.16667 13.0608L2.98667 11.27C3.38917 11.5208 3.8675 11.6667 4.375 11.6667C5.83333 11.6667 7 10.5 7 9.04167C7 7.58333 5.83333 6.41667 4.375 6.41667ZM4.375 10.5C3.98823 10.5 3.61729 10.3464 3.3438 10.0729C3.07031 9.79937 2.91667 9.42844 2.91667 9.04167C2.91667 8.65489 3.07031 8.28396 3.3438 8.01047C3.61729 7.73698 3.98823 7.58333 4.375 7.58333C4.76178 7.58333 5.13271 7.73698 5.4062 8.01047C5.67969 8.28396 5.83333 8.65489 5.83333 9.04167C5.83333 9.42844 5.67969 9.79937 5.4062 10.0729C5.13271 10.3464 4.76178 10.5 4.375 10.5ZM13.4167 2.91667V11.0833C13.4167 11.7308 12.8975 12.25 12.25 12.25H6.3875C6.86 11.9583 7.2625 11.5558 7.56583 11.0833H12.25V5.25H7.58333V2.91667H1.75V6.31167C1.0325 7 0.583335 7.96833 0.583335 9.04167V2.91667C0.583335 2.275 1.10833 1.75 1.75 1.75H12.25C12.5594 1.75 12.8562 1.87292 13.075 2.09171C13.2938 2.3105 13.4167 2.60725 13.4167 2.91667Z" fill="#3C3C3C"/>
</svg>
