<svg width="14" height="14" viewBox="0 0 14 14" fill="none" xmlns="http://www.w3.org/2000/svg">
<path class='line' d="M3.33333 4.66667C3.48804 4.66667 3.63642 4.60521 3.74581 4.49581C3.85521 4.38642 3.91667 4.23804 3.91667 4.08333C3.91667 3.92862 3.85521 3.78025 3.74581 3.67085C3.63642 3.56146 3.48804 3.5 3.33333 3.5C3.17862 3.5 3.03025 3.56146 2.92085 3.67085C2.81146 3.78025 2.75 3.92862 2.75 4.08333C2.75 4.23804 2.81146 4.38642 2.92085 4.49581C3.03025 4.60521 3.17862 4.66667 3.33333 4.66667ZM5.66667 4.08333C5.66667 4.23804 5.60521 4.38642 5.49581 4.49581C5.38642 4.60521 5.23804 4.66667 5.08333 4.66667C4.92862 4.66667 4.78025 4.60521 4.67085 4.49581C4.56146 4.38642 4.5 4.23804 4.5 4.08333C4.5 3.92862 4.56146 3.78025 4.67085 3.67085C4.78025 3.56146 4.92862 3.5 5.08333 3.5C5.23804 3.5 5.38642 3.56146 5.49581 3.67085C5.60521 3.78025 5.66667 3.92862 5.66667 4.08333ZM6.83333 4.66667C6.98804 4.66667 7.13642 4.60521 7.24581 4.49581C7.35521 4.38642 7.41667 4.23804 7.41667 4.08333C7.41667 3.92862 7.35521 3.78025 7.24581 3.67085C7.13642 3.56146 6.98804 3.5 6.83333 3.5C6.67862 3.5 6.53025 3.56146 6.42085 3.67085C6.31146 3.78025 6.25 3.92862 6.25 4.08333C6.25 4.23804 6.31146 4.38642 6.42085 4.49581C6.53025 4.60521 6.67862 4.66667 6.83333 4.66667Z" fill="#fff"/>
<path fill-rule="evenodd" clip-rule="evenodd" d="M2.5 2C2.10218 2 1.72064 2.17559 1.43934 2.48816C1.15804 2.80072 1 3.22464 1 3.66667L1 10.3333C1 10.7754 1.15804 11.1993 1.43934 11.5118C1.72064 11.8244 2.10218 12 2.5 12H11.5C11.8978 12 12.2794 11.8244 12.5607 11.5118C12.842 11.1993 13 10.7754 13 10.3333V3.66667C13 3.22464 12.842 2.80072 12.5607 2.48816C12.2794 2.17559 11.8978 2 11.5 2H2.5ZM11.5 3.11111H2.5C2.36739 3.11111 2.24021 3.16964 2.14645 3.27383C2.05268 3.37802 2 3.51932 2 3.66667V5.33333H12V3.66667C12 3.51932 11.9473 3.37802 11.8536 3.27383C11.7598 3.16964 11.6326 3.11111 11.5 3.11111ZM2 10.3333V6.44444H12V10.3333C12 10.4807 11.9473 10.622 11.8536 10.7262C11.7598 10.8304 11.6326 10.8889 11.5 10.8889H2.5C2.36739 10.8889 2.24021 10.8304 2.14645 10.7262C2.05268 10.622 2 10.4807 2 10.3333Z" fill="#fff"/>
</svg>
