<svg width="35" height="35" viewBox="0 0 35 35" fill="none" xmlns="http://www.w3.org/2000/svg">
<g opacity="0.6" clip-path="url(#clip0_270_5628)">
<path d="M35 1.7675L33.2325 0L0 33.2325L1.7675 35L4.2675 32.5H30C31.38 32.498 32.498 31.38 32.5 30V4.2675L35 1.7675ZM30 30H6.7675L16.5085 20.259L19.482 23.2325C20.4585 24.209 22.041 24.209 23.0175 23.2325L25 21.2505L30 26.247V30.0005V30ZM30 22.71L26.7675 19.4775C25.791 18.501 24.2085 18.501 23.232 19.4775L21.2495 21.46L18.278 18.4885L29.9995 6.7675V22.71H30Z" fill="#919191"/>
<path d="M5 25V21.25L11.25 15.004L12.9665 16.7205L14.7365 14.9505L13.0175 13.2315C12.041 12.255 10.4585 12.255 9.482 13.2315L4.9995 17.714V5H24.9995V2.5H5C3.62 2.5015 2.5015 3.62 2.5 5V25H5Z" fill="#919191"/>
</g>
<defs>
<clipPath id="clip0_270_5628">
<rect width="35" height="35" fill="white"/>
</clipPath>
</defs>
</svg>
