<svg width="14" height="14" viewBox="0 0 14 14" fill="none" xmlns="http://www.w3.org/2000/svg">
<path d="M4.37439 6.41663C4.85764 6.41663 5.24939 6.02488 5.24939 5.54163C5.24939 5.05838 4.85764 4.66663 4.37439 4.66663C3.89114 4.66663 3.49939 5.05838 3.49939 5.54163C3.49939 6.02488 3.89114 6.41663 4.37439 6.41663Z" fill="#fff"/>
<path d="M6.12439 8.16671L5.24939 7.00004L3.49939 9.33337H10.4994L7.87439 5.83337L6.12439 8.16671Z" fill="#fff"/>
<path d="M12.6 1H1.4C0.6279 1 0 1.67275 0 2.5V11.5C0 12.3273 0.6279 13 1.4 13H12.6C13.3721 13 14 12.3273 14 11.5V2.5C14 1.67275 13.3721 1 12.6 1ZM1.4 11.5V2.5H12.6L12.6014 11.5H1.4Z" fill="#fff"/>
</svg>
