<svg width="14" height="14" viewBox="0 0 14 14" fill="none" xmlns="http://www.w3.org/2000/svg">
<path d="M12.3333 4.33333C11.398 2.36 9.358 1 7 1C6.21207 1 5.43185 1.15519 4.7039 1.45672C3.97595 1.75825 3.31451 2.20021 2.75736 2.75736C2.20021 3.31451 1.75825 3.97595 1.45672 4.7039C1.15519 5.43185 1 6.21207 1 7C1 7.78793 1.15519 8.56815 1.45672 9.2961C1.75825 10.0241 2.20021 10.6855 2.75736 11.2426C3.31451 11.7998 3.97595 12.2417 4.7039 12.5433C5.43185 12.8448 6.21207 13 7 13C8.5913 13 10.1174 12.3679 11.2426 11.2426C12.3679 10.1174 13 8.5913 13 7M13 1V5H9" stroke="white" stroke-width="1.5"/>
</svg>
