<?xml version="1.0" standalone="no"?>
<!DOCTYPE svg PUBLIC "-//W3C//DTD SVG 20010904//EN"
 "http://www.w3.org/TR/2001/REC-SVG-20010904/DTD/svg10.dtd">
<svg version="1.0" xmlns="http://www.w3.org/2000/svg"
 width="24.000000pt" height="24.000000pt" viewBox="0 0 24.000000 24.000000"
 preserveAspectRatio="xMidYMid meet">

<g transform="translate(0.000000,24.000000) scale(0.100000,-0.100000)"
fill="#000000" stroke="none">
<path d="M24 219 c-10 -17 -8 -189 3 -200 6 -6 50 -9 99 -7 l89 3 0 105 0 105
-92 3 c-61 2 -94 -1 -99 -9z m174 -7 c9 -6 12 -33 10 -98 l-3 -89 -85 0 -85 0
-1 85 c0 47 1 91 4 98 5 14 138 17 160 4z"/>
<path d="M103 154 c-8 -21 13 -42 28 -27 13 13 5 43 -11 43 -6 0 -13 -7 -17
-16z"/>
<path d="M92 98 c-21 -21 -13 -28 28 -28 28 0 40 4 40 14 0 25 -47 35 -68 14z"/>
</g>
</svg>
