<svg width="14" height="14" viewBox="0 0 14 14" fill="none" xmlns="http://www.w3.org/2000/svg">
<g clip-path="url(#clip0_231_2740)">
<path d="M7.92515 1.16663C8.23454 1.16669 8.53124 1.28965 8.74998 1.50846L11.3248 4.08329C11.5436 4.30203 11.6666 4.59873 11.6666 4.90813V11.6666C11.6666 11.976 11.5437 12.2728 11.3249 12.4916C11.1061 12.7104 10.8094 12.8333 10.5 12.8333H3.49998C3.19056 12.8333 2.89381 12.7104 2.67502 12.4916C2.45623 12.2728 2.33331 11.976 2.33331 11.6666V2.33329C2.33331 2.02387 2.45623 1.72713 2.67502 1.50833C2.89381 1.28954 3.19056 1.16663 3.49998 1.16663H7.92515ZM6.99998 2.33329H3.49998V11.6666H10.5V5.83329H7.87498C7.64292 5.83329 7.42036 5.74111 7.25626 5.57701C7.09217 5.41292 6.99998 5.19036 6.99998 4.95829V2.33329ZM8.74998 8.16663C8.90469 8.16663 9.05306 8.22808 9.16246 8.33748C9.27185 8.44688 9.33331 8.59525 9.33331 8.74996C9.33331 8.90467 9.27185 9.05304 9.16246 9.16244C9.05306 9.27184 8.90469 9.33329 8.74998 9.33329H5.24998C5.09527 9.33329 4.9469 9.27184 4.8375 9.16244C4.7281 9.05304 4.66665 8.90467 4.66665 8.74996C4.66665 8.59525 4.7281 8.44688 4.8375 8.33748C4.9469 8.22808 5.09527 8.16663 5.24998 8.16663H8.74998ZM5.83331 5.83329C5.98802 5.83329 6.1364 5.89475 6.24579 6.00415C6.35519 6.11354 6.41665 6.26192 6.41665 6.41663C6.41665 6.57134 6.35519 6.71971 6.24579 6.82911C6.1364 6.9385 5.98802 6.99996 5.83331 6.99996H5.24998C5.09527 6.99996 4.9469 6.9385 4.8375 6.82911C4.7281 6.71971 4.66665 6.57134 4.66665 6.41663C4.66665 6.26192 4.7281 6.11354 4.8375 6.00415C4.9469 5.89475 5.09527 5.83329 5.24998 5.83329H5.83331ZM8.16665 2.57479V4.66663H10.2585L8.16665 2.57479Z" fill="#fff"/>
</g>
<defs>
<clipPath id="clip0_231_2740">
<rect width="14" height="14" fill="white"/>
</clipPath>
</defs>
</svg>
