<svg width="14" height="14" viewBox="0 0 14 14" fill="none" xmlns="http://www.w3.org/2000/svg">
<path fill-rule="evenodd" clip-rule="evenodd" d="M11.5695 2C12.0477 1.99997 12.5079 2.1827 12.8559 2.5108C13.2038 2.8389 13.4133 3.28757 13.4413 3.765L13.4445 3.875V10.125C13.4445 10.6033 13.2618 11.0634 12.9337 11.4114C12.6056 11.7594 12.1569 11.9688 11.6795 11.9969L11.5695 12H2.81946C2.3412 12 1.88101 11.8173 1.53304 11.4892C1.18508 11.1611 0.975641 10.7124 0.947583 10.235L0.944458 10.125V3.875C0.944431 3.39674 1.12716 2.93655 1.45526 2.58859C1.78336 2.24062 2.23203 2.03118 2.70946 2.00313L2.81946 2H11.5695ZM12.1945 5.75H2.19446V10.125C2.19448 10.2781 2.25068 10.4258 2.35241 10.5402C2.45413 10.6546 2.5943 10.7277 2.74633 10.7456L2.81946 10.75H11.5695C11.7225 10.75 11.8703 10.6938 11.9847 10.5921C12.0991 10.4903 12.1722 10.3502 12.1901 10.1981L12.1945 10.125V5.75ZM8.88633 6.665L10.0288 7.80813C10.146 7.92533 10.2118 8.08427 10.2118 8.25C10.2118 8.41573 10.146 8.57467 10.0288 8.69187L8.88633 9.83437C8.82868 9.89407 8.75971 9.94168 8.68346 9.97444C8.60721 10.0072 8.5252 10.0244 8.44221 10.0252C8.35922 10.0259 8.27692 10.0101 8.20011 9.97864C8.1233 9.94721 8.05352 9.90081 7.99484 9.84212C7.93615 9.78344 7.88975 9.71366 7.85832 9.63685C7.82689 9.56004 7.81108 9.47774 7.8118 9.39475C7.81252 9.31176 7.82976 9.22975 7.86252 9.1535C7.89528 9.07724 7.94289 9.00828 8.00258 8.95063L8.07758 8.875H5.31946C5.1537 8.875 4.99473 8.80915 4.87752 8.69194C4.76031 8.57473 4.69446 8.41576 4.69446 8.25C4.69446 8.08424 4.76031 7.92527 4.87752 7.80806C4.99473 7.69085 5.1537 7.625 5.31946 7.625H8.07821L8.00258 7.54937C7.88531 7.43218 7.81939 7.2732 7.81933 7.10741C7.81927 6.94162 7.88508 6.78259 8.00227 6.66531C8.11946 6.54804 8.27844 6.48212 8.44424 6.48206C8.61003 6.482 8.76906 6.54781 8.88633 6.665ZM11.5695 3.25H2.81946C2.6537 3.25 2.49473 3.31585 2.37752 3.43306C2.26031 3.55027 2.19446 3.70924 2.19446 3.875V4.5H12.1945V3.875C12.1945 3.70924 12.1286 3.55027 12.0114 3.43306C11.8942 3.31585 11.7352 3.25 11.5695 3.25Z" fill="#3C3C3C"/>
</svg>
