<svg width="16" height="16" viewBox="0 0 16 16" fill="none" xmlns="http://www.w3.org/2000/svg">
<path d="M6.82692 6.1731H8.32692V4.6731H6.82692M7.57692 14.4231C4.26942 14.4231 1.57692 11.7306 1.57692 8.4231C1.57692 5.1156 4.26942 2.4231 7.57692 2.4231C10.8844 2.4231 13.5769 5.1156 13.5769 8.4231C13.5769 11.7306 10.8844 14.4231 7.57692 14.4231ZM7.57692 0.923096C6.59201 0.923096 5.61674 1.11709 4.70679 1.494C3.79685 1.87091 2.97006 2.42336 2.27362 3.11979C0.867096 4.52632 0.0769196 6.43397 0.0769196 8.4231C0.0769196 10.4122 0.867096 12.3199 2.27362 13.7264C2.97006 14.4228 3.79685 14.9753 4.70679 15.3522C5.61674 15.7291 6.59201 15.9231 7.57692 15.9231C9.56604 15.9231 11.4737 15.1329 12.8802 13.7264C14.2867 12.3199 15.0769 10.4122 15.0769 8.4231C15.0769 7.43818 14.8829 6.46291 14.506 5.55297C14.1291 4.64303 13.5767 3.81623 12.8802 3.11979C12.1838 2.42336 11.357 1.87091 10.447 1.494C9.5371 1.11709 8.56183 0.923096 7.57692 0.923096ZM6.82692 12.1731H8.32692V7.6731H6.82692V12.1731Z" fill="white"/>
</svg>
