<svg width="8" height="8" viewBox="0 0 8 8" fill="none" xmlns="http://www.w3.org/2000/svg">
<path d="M0.197038 4.47519L3.52762 7.80991C3.59098 7.87063 3.66568 7.91823 3.74744 7.94997C3.90962 8.01668 4.09152 8.01668 4.25369 7.94997C4.33546 7.91823 4.41016 7.87063 4.47351 7.80991L7.8041 4.47519C7.86621 4.41301 7.91547 4.33918 7.94909 4.25794C7.9827 4.17669 8 4.08961 8 4.00166C8 3.82405 7.92953 3.65372 7.8041 3.52813C7.67867 3.40254 7.50855 3.33199 7.33116 3.33199C7.15377 3.33199 6.98365 3.40254 6.85821 3.52813L4.66669 5.72905L4.66669 0.666943C4.66669 0.490059 4.59651 0.320419 4.47159 0.195342C4.34666 0.0702659 4.17723 -3.34197e-07 4.00057 -3.49641e-07C3.8239 -3.65086e-07 3.65447 0.0702659 3.52955 0.195342C3.40463 0.320418 3.33445 0.490058 3.33445 0.666943L3.33445 5.72905L1.14292 3.52813C1.081 3.46562 1.00733 3.416 0.926154 3.38214C0.844982 3.34828 0.757916 3.33085 0.669981 3.33085C0.582045 3.33085 0.49498 3.34828 0.413807 3.38214C0.332635 3.416 0.258962 3.46562 0.197038 3.52813C0.134604 3.59013 0.0850471 3.6639 0.0512294 3.74517C0.0174116 3.82644 8.3408e-07 3.91362 8.26383e-07 4.00166C8.18686e-07 4.08971 0.0174116 4.17688 0.0512293 4.25815C0.0850471 4.33943 0.134604 4.41319 0.197038 4.47519Z" fill="#008CF1"/>
</svg>
