<svg width="12" height="14" viewBox="0 0 12 14" fill="none" xmlns="http://www.w3.org/2000/svg">
<path d="M0.539585 7.72708C0.591826 7.67478 0.653864 7.63329 0.72215 7.60498C0.790437 7.57667 0.863632 7.5621 0.937554 7.5621C1.01148 7.5621 1.08467 7.57667 1.15296 7.60498C1.22124 7.63329 1.28328 7.67478 1.33552 7.72708L5.43755 11.8298L5.43755 0.812545C5.43755 0.663361 5.49682 0.520287 5.60231 0.414798C5.7078 0.309308 5.85087 0.250045 6.00005 0.250045C6.14924 0.250045 6.29231 0.309309 6.3978 0.414798C6.50329 0.520287 6.56255 0.663361 6.56255 0.812545L6.56255 11.8298L10.6646 7.72708C10.7701 7.62153 10.9133 7.56223 11.0626 7.56223C11.2118 7.56223 11.355 7.62153 11.4605 7.72708C11.5661 7.83262 11.6254 7.97578 11.6254 8.12505C11.6254 8.27431 11.5661 8.41747 11.4605 8.52301L6.39802 13.5855C6.34578 13.6378 6.28374 13.6793 6.21546 13.7076C6.14717 13.7359 6.07397 13.7505 6.00005 13.7505C5.92613 13.7505 5.85294 13.7359 5.78465 13.7076C5.71636 13.6793 5.65433 13.6378 5.60208 13.5855L0.539585 8.52301C0.487285 8.47077 0.445796 8.40874 0.417489 8.34045C0.389181 8.27216 0.374611 8.19897 0.374611 8.12504C0.374611 8.05112 0.389181 7.97793 0.417489 7.90964C0.445796 7.84135 0.487285 7.77932 0.539585 7.72708Z" fill="#3C3C3C"/>
</svg>
