<?xml version="1.0" standalone="no"?>
<!DOCTYPE svg PUBLIC "-//W3C//DTD SVG 20010904//EN"
 "http://www.w3.org/TR/2001/REC-SVG-20010904/DTD/svg10.dtd">
<svg version="1.0" xmlns="http://www.w3.org/2000/svg"
 width="24.000000pt" height="24.000000pt" viewBox="0 0 24.000000 24.000000"
 preserveAspectRatio="xMidYMid meet">

<g transform="translate(0.000000,24.000000) scale(0.100000,-0.100000)"
fill="#000000" stroke="none">
<path d="M26 214 c-3 -9 -6 -55 -6 -104 0 -103 -3 -100 110 -100 62 0 79 3 84
16 3 9 6 55 6 104 0 103 3 100 -110 100 -62 0 -79 -3 -84 -16z m57 -14 c7 -29
67 -28 74 1 4 14 12 19 27 17 20 -3 21 -9 21 -98 l0 -95 -85 0 -85 0 -3 84
c-2 46 -1 90 2 98 8 20 43 16 49 -7z m62 10 c8 -13 -20 -24 -41 -16 -20 8 -9
26 16 26 10 0 22 -5 25 -10z"/>
<path d="M138 123 c-23 -22 -29 -24 -42 -13 -9 7 -16 8 -16 2 0 -5 6 -15 13
-21 10 -8 21 -2 47 24 19 19 32 35 29 35 -2 0 -16 -12 -31 -27z"/>
</g>
</svg>
