<svg width="13" height="13" viewBox="0 0 13 13" fill="none" xmlns="http://www.w3.org/2000/svg">
<path d="M11.5 4C10.6231 2.15 8.71062 0.875 6.5 0.875C5.76131 0.875 5.02986 1.02049 4.34741 1.30318C3.66495 1.58586 3.04485 2.00019 2.52252 2.52252C2.00019 3.04485 1.58586 3.66495 1.30318 4.34741C1.02049 5.02986 0.875 5.76131 0.875 6.5C0.875 7.23869 1.02049 7.97014 1.30318 8.65259C1.58586 9.33505 2.00019 9.95515 2.52252 10.4775C3.04485 10.9998 3.66495 11.4141 4.34741 11.6968C5.02986 11.9795 5.76131 12.125 6.5 12.125C7.99184 12.125 9.42258 11.5324 10.4775 10.4775C11.5324 9.42258 12.125 7.99184 12.125 6.5M12.125 0.875V4.625H8.375" stroke="#3C3C3C" stroke-width="1.5"/>
</svg>
