<svg width="13" height="9" viewBox="0 0 13 9" fill="none" xmlns="http://www.w3.org/2000/svg">
<path d="M12.7138 0.99836C12.5306 0.812682 12.282 0.708374 12.0229 0.708374C11.7637 0.708374 11.5152 0.812682 11.3319 0.99836L6.4941 5.90101L1.6563 0.998359C1.47197 0.817944 1.22509 0.718113 0.968842 0.72037C0.712587 0.722626 0.46746 0.82679 0.286255 1.01042C0.105049 1.19406 0.00226494 1.44247 3.81035e-05 1.70216C-0.00218874 1.96185 0.096321 2.21204 0.27435 2.39883L5.80313 8.00172C5.9864 8.1874 6.23495 8.29171 6.4941 8.29171C6.75325 8.29171 7.0018 8.1874 7.18507 8.00172L12.7138 2.39883C12.8971 2.2131 13 1.96122 13 1.6986C13 1.43597 12.8971 1.18409 12.7138 0.99836Z" fill="#3C3C3C"/>
</svg>
