<svg width="14" height="14" viewBox="0 0 14 14" fill="none" xmlns="http://www.w3.org/2000/svg">
<path d="M6.33325 5.00016H7.66658V3.66683H6.33325M6.99992 12.3335C4.05992 12.3335 1.66659 9.94016 1.66659 7.00016C1.66659 4.06016 4.05992 1.66683 6.99992 1.66683C9.93992 1.66683 12.3333 4.06016 12.3333 7.00016C12.3333 9.94016 9.93992 12.3335 6.99992 12.3335ZM6.99992 0.333496C6.12444 0.333496 5.25753 0.505935 4.4487 0.840966C3.63986 1.176 2.90493 1.66706 2.28587 2.28612C1.03563 3.53636 0.333252 5.23205 0.333252 7.00016C0.333252 8.76827 1.03563 10.464 2.28587 11.7142C2.90493 12.3333 3.63986 12.8243 4.4487 13.1594C5.25753 13.4944 6.12444 13.6668 6.99992 13.6668C8.76803 13.6668 10.4637 12.9644 11.714 11.7142C12.9642 10.464 13.6666 8.76827 13.6666 7.00016C13.6666 6.12468 13.4941 5.25778 13.1591 4.44894C12.8241 3.6401 12.333 2.90517 11.714 2.28612C11.0949 1.66706 10.36 1.176 9.55114 0.840966C8.7423 0.505935 7.8754 0.333496 6.99992 0.333496ZM6.33325 10.3335H7.66658V6.3335H6.33325V10.3335Z" fill="#3C3C3C"/>
</svg>
