<svg version="1.1" xmlns="http://www.w3.org/2000/svg" xmlns:xlink="http://www.w3.org/1999/xlink" width="24.000000pt" height="24.000000pt" viewBox="0,0,256,256"><g fill="#ffffff" fill-rule="nonzero" stroke="none" stroke-width="1" stroke-linecap="butt" stroke-linejoin="miter" stroke-miterlimit="10" stroke-dasharray="" stroke-dashoffset="0" font-family="none" font-weight="none" font-size="none" text-anchor="none" style="mix-blend-mode: normal"><g transform="scale(10.66667,10.66667)"><g transform="translate(0,24) scale(0.1,-0.1)"><path d="M26,214c-3,-9 -6,-55 -6,-104c0,-103 -3,-100 110,-100c62,0 79,3 84,16c3,9 6,55 6,104c0,103 3,100 -110,100c-62,0 -79,-3 -84,-16zM83,200c7,-29 67,-28 74,1c4,14 12,19 27,17c20,-3 21,-9 21,-98v-95h-85h-85l-3,84c-2,46 -1,90 2,98c8,20 43,16 49,-7zM145,210c8,-13 -20,-24 -41,-16c-20,8 -9,26 16,26c10,0 22,-5 25,-10z"></path><path d="M138,123c-23,-22 -29,-24 -42,-13c-9,7 -16,8 -16,2c0,-5 6,-15 13,-21c10,-8 21,-2 47,24c19,19 32,35 29,35c-2,0 -16,-12 -31,-27z"></path></g></g></g></svg>