<svg width="18" height="18" viewBox="0 0 18 18" fill="none" xmlns="http://www.w3.org/2000/svg">
<path d="M14.144 15.2507C14.2402 15.1522 14.2941 15.02 14.2941 14.8823C14.2941 14.7447 14.2402 14.6124 14.144 14.514L8.76938 9.00035L14.144 3.48785C14.2402 3.38936 14.2941 3.25714 14.2941 3.11947C14.2941 2.98179 14.2402 2.84957 14.144 2.75108C14.0972 2.70306 14.0413 2.66489 13.9796 2.63882C13.9178 2.61276 13.8515 2.59933 13.7845 2.59933C13.7174 2.59933 13.6511 2.61276 13.5893 2.63882C13.5276 2.66489 13.4717 2.70306 13.4249 2.75108L7.70945 8.61542C7.60907 8.71841 7.55289 8.85653 7.55289 9.00035C7.55289 9.14416 7.60907 9.28229 7.70945 9.38527L13.4249 15.2496C13.4717 15.2976 13.5276 15.3358 13.5893 15.3619C13.6511 15.3879 13.7174 15.4014 13.7845 15.4014C13.8515 15.4014 13.9178 15.3879 13.9796 15.3619C14.0413 15.3358 14.0972 15.2976 14.144 15.2496L14.144 15.2507Z" fill="#fff"/>
<path d="M9.28012 15.2507C9.37632 15.1522 9.43018 15.02 9.43018 14.8823C9.43018 14.7447 9.37632 14.6124 9.28012 14.514L3.90549 9.00035L9.28012 3.48785C9.37632 3.38936 9.43018 3.25714 9.43018 3.11947C9.43018 2.98179 9.37632 2.84957 9.28012 2.75108C9.23336 2.70306 9.17745 2.66489 9.1157 2.63882C9.05394 2.61276 8.98759 2.59933 8.92056 2.59933C8.85353 2.59933 8.78718 2.61276 8.72542 2.63882C8.66367 2.66489 8.60776 2.70306 8.561 2.75108L2.84556 8.61542C2.74518 8.71841 2.689 8.85653 2.689 9.00035C2.689 9.14416 2.74518 9.28229 2.84556 9.38527L8.561 15.2496C8.60776 15.2976 8.66367 15.3358 8.72542 15.3619C8.78718 15.3879 8.85353 15.4014 8.92056 15.4014C8.98759 15.4014 9.05394 15.3879 9.11569 15.3619C9.17745 15.3358 9.23336 15.2976 9.28012 15.2496L9.28012 15.2507Z" fill="#fff"/>
</svg>
