<svg width="18" height="18" viewBox="0 0 18 18" fill="none" xmlns="http://www.w3.org/2000/svg">
<path d="M11.9492 15.2507C12.0454 15.1522 12.0992 15.02 12.0992 14.8823C12.0992 14.7447 12.0454 14.6124 11.9492 14.514L6.57455 9.00035L11.9492 3.48785C12.0454 3.38936 12.0992 3.25714 12.0992 3.11947C12.0992 2.98179 12.0454 2.84957 11.9492 2.75108C11.9024 2.70306 11.8465 2.66489 11.7848 2.63882C11.723 2.61276 11.6567 2.59933 11.5896 2.59933C11.5226 2.59933 11.4562 2.61276 11.3945 2.63882C11.3327 2.66489 11.2768 2.70306 11.2301 2.75108L5.51463 8.61542C5.41424 8.71841 5.35806 8.85653 5.35806 9.00035C5.35806 9.14416 5.41424 9.28229 5.51463 9.38527L11.2301 15.2496C11.2768 15.2976 11.3327 15.3358 11.3945 15.3619C11.4562 15.3879 11.5226 15.4014 11.5896 15.4014C11.6567 15.4014 11.723 15.3879 11.7848 15.3619C11.8465 15.3358 11.9024 15.2976 11.9492 15.2496L11.9492 15.2507Z" fill="#fff"/>
</svg>
