<svg width="10" height="10" viewBox="0 0 10 10" fill="none" xmlns="http://www.w3.org/2000/svg">
<g clip-path="url(#clip0_231_2759)">
<path d="M0.220115 7.69356C0.361098 7.83639 0.552285 7.91663 0.751634 7.91663C0.950983 7.91663 1.14217 7.83639 1.28315 7.69356L5.00454 3.92229L8.72592 7.69356C8.86771 7.83234 9.05762 7.90913 9.25474 7.9074C9.45186 7.90566 9.64042 7.82554 9.77981 7.68428C9.91919 7.54302 9.99826 7.35194 9.99997 7.15217C10.0017 6.95241 9.92591 6.75996 9.78896 6.61627L5.53606 2.30636C5.39508 2.16353 5.20389 2.08329 5.00454 2.08329C4.80519 2.08329 4.614 2.16353 4.47302 2.30636L0.220115 6.61627C0.0791756 6.75914 1.14924e-08 6.95289 9.0833e-09 7.15492C6.67422e-09 7.35694 0.0791756 7.55069 0.220115 7.69356Z" fill="#3C3C3C"/>
</g>
<defs>
<clipPath id="clip0_231_2759">
<rect width="10" height="10" fill="white" transform="translate(0 10) rotate(-90)"/>
</clipPath>
</defs>
</svg>
