<svg version="1.1" xmlns="http://www.w3.org/2000/svg" xmlns:xlink="http://www.w3.org/1999/xlink" width="24.000000pt" height="24.000000pt" viewBox="0,0,256,256"><g fill="#ffffff" fill-rule="nonzero" stroke="none" stroke-width="1" stroke-linecap="butt" stroke-linejoin="miter" stroke-miterlimit="10" stroke-dasharray="" stroke-dashoffset="0" font-family="none" font-weight="none" font-size="none" text-anchor="none" style="mix-blend-mode: normal"><g transform="translate(-0.74769,-0.53333) scale(10.66667,10.66667)"><g transform="translate(0,24) scale(0.1,-0.1)"><path d="M24,217c-3,-8 -3,-56 -2,-108l3,-94l98,-3l97,-3v111v110h-95c-70,0 -97,-4 -101,-13zM208,143l3,-73h-76h-75l-2,73l-2,72l-3,-72c-5,-87 -23,-98 -23,-14c0,92 0,92 94,89l81,-3zM133,53c-40,-2 -73,-8 -73,-13c0,-6 33,-11 73,-12l72,-2l-65,-3c-80,-5 -111,2 -104,22c5,12 23,15 88,13l81,-2z"></path></g></g></g></svg>