<svg version="1.1" xmlns="http://www.w3.org/2000/svg" xmlns:xlink="http://www.w3.org/1999/xlink" width="24.000000pt" height="24.000000pt" viewBox="0,0,256,256"><g fill="#ffffff" fill-rule="nonzero" stroke="none" stroke-width="1" stroke-linecap="butt" stroke-linejoin="miter" stroke-miterlimit="10" stroke-dasharray="" stroke-dashoffset="0" font-family="none" font-weight="none" font-size="none" text-anchor="none" style="mix-blend-mode: normal"><g transform="translate(3.99252,-0.00909) scale(10.66667,10.66667)"><g transform="translate(0,24) scale(0.1,-0.1)"><path d="M24,219c-10,-17 -8,-189 3,-200c6,-6 50,-9 99,-7l89,3v105v105l-92,3c-61,2 -94,-1 -99,-9zM198,212c9,-6 12,-33 10,-98l-3,-89h-85h-85l-1,85c0,47 1,91 4,98c5,14 138,17 160,4z"></path><path d="M103,154c-8,-21 13,-42 28,-27c13,13 5,43 -11,43c-6,0 -13,-7 -17,-16z"></path><path d="M92,98c-21,-21 -13,-28 28,-28c28,0 40,4 40,14c0,25 -47,35 -68,14z"></path></g></g></g></svg>