<svg width="16" height="16" viewBox="0 0 16 16" fill="none" xmlns="http://www.w3.org/2000/svg">
<g clip-path="url(#clip0_241_11559)">
<path d="M14.3334 2.6665H12.8889V3.55539H14.2222V13.3332H1.7778V3.55539H3.11113V2.6665H1.66669C1.56279 2.66824 1.46026 2.69043 1.36494 2.7318C1.26962 2.77317 1.18338 2.83291 1.11116 2.90761C1.03893 2.98231 0.982129 3.07051 0.943995 3.16717C0.905861 3.26383 0.887142 3.36705 0.888908 3.47095V13.4176C0.887142 13.5215 0.905861 13.6247 0.943995 13.7214C0.982129 13.8181 1.03893 13.9062 1.11116 13.981C1.18338 14.0557 1.26962 14.1154 1.36494 14.1568C1.46026 14.1981 1.56279 14.2203 1.66669 14.2221H14.3334C14.4372 14.2203 14.5398 14.1981 14.6351 14.1568C14.7304 14.1154 14.8167 14.0557 14.8889 13.981C14.9611 13.9062 15.0179 13.8181 15.056 13.7214C15.0942 13.6247 15.1129 13.5215 15.1111 13.4176V3.47095C15.1129 3.36705 15.0942 3.26383 15.056 3.16717C15.0179 3.07051 14.9611 2.98231 14.8889 2.90761C14.8167 2.83291 14.7304 2.77317 14.6351 2.7318C14.5398 2.69043 14.4372 2.66824 14.3334 2.6665Z" fill="#3C3C3C"/>
<path d="M3.55554 6.22217H4.44443V7.11106H3.55554V6.22217Z" fill="#3C3C3C"/>
<path d="M6.22223 6.22217H7.11112V7.11106H6.22223V6.22217Z" fill="#3C3C3C"/>
<path d="M8.88892 6.22217H9.7778V7.11106H8.88892V6.22217Z" fill="#3C3C3C"/>
<path d="M11.5555 6.22217H12.4444V7.11106H11.5555V6.22217Z" fill="#3C3C3C"/>
<path d="M3.55554 8.44434H4.44443V9.33322H3.55554V8.44434Z" fill="#3C3C3C"/>
<path d="M6.22223 8.44434H7.11112V9.33322H6.22223V8.44434Z" fill="#3C3C3C"/>
<path d="M8.88892 8.44434H9.7778V9.33322H8.88892V8.44434Z" fill="#3C3C3C"/>
<path d="M11.5555 8.44434H12.4444V9.33322H11.5555V8.44434Z" fill="#3C3C3C"/>
<path d="M3.55554 10.6665H4.44443V11.5554H3.55554V10.6665Z" fill="#3C3C3C"/>
<path d="M6.22223 10.6665H7.11112V11.5554H6.22223V10.6665Z" fill="#3C3C3C"/>
<path d="M8.88892 10.6665H9.7778V11.5554H8.88892V10.6665Z" fill="#3C3C3C"/>
<path d="M11.5555 10.6665H12.4444V11.5554H11.5555V10.6665Z" fill="#3C3C3C"/>
<path d="M4.44444 4.44423C4.56232 4.44423 4.67536 4.3974 4.75871 4.31405C4.84206 4.2307 4.88889 4.11766 4.88889 3.99978V1.33312C4.88889 1.21524 4.84206 1.1022 4.75871 1.01885C4.67536 0.935497 4.56232 0.888672 4.44444 0.888672C4.32657 0.888672 4.21352 0.935497 4.13017 1.01885C4.04683 1.1022 4 1.21524 4 1.33312V3.99978C4 4.11766 4.04683 4.2307 4.13017 4.31405C4.21352 4.3974 4.32657 4.44423 4.44444 4.44423Z" fill="#3C3C3C"/>
<path d="M11.5555 4.44423C11.6734 4.44423 11.7864 4.3974 11.8698 4.31405C11.9531 4.2307 12 4.11766 12 3.99978V1.33312C12 1.21524 11.9531 1.1022 11.8698 1.01885C11.7864 0.935497 11.6734 0.888672 11.5555 0.888672C11.4377 0.888672 11.3246 0.935497 11.2413 1.01885C11.1579 1.1022 11.1111 1.21524 11.1111 1.33312V3.99978C11.1111 4.11766 11.1579 4.2307 11.2413 4.31405C11.3246 4.3974 11.4377 4.44423 11.5555 4.44423Z" fill="#3C3C3C"/>
<path d="M5.77777 2.6665H10.2222V3.55539H5.77777V2.6665Z" fill="#3C3C3C"/>
</g>
<defs>
<clipPath id="clip0_241_11559">
<rect width="16" height="16" fill="white"/>
</clipPath>
</defs>
</svg>
