<svg width="16" height="16" viewBox="0 0 16 16" fill="none" xmlns="http://www.w3.org/2000/svg">
<path d="M6.82693 6.1731H8.32693V4.6731H6.82693M7.57693 14.4231C4.26943 14.4231 1.57693 11.7306 1.57693 8.4231C1.57693 5.1156 4.26943 2.4231 7.57693 2.4231C10.8844 2.4231 13.5769 5.1156 13.5769 8.4231C13.5769 11.7306 10.8844 14.4231 7.57693 14.4231ZM7.57693 0.923096C6.59202 0.923096 5.61675 1.11709 4.70681 1.494C3.79687 1.87091 2.97007 2.42336 2.27363 3.11979C0.867111 4.52632 0.0769348 6.43397 0.0769348 8.4231C0.0769348 10.4122 0.867111 12.3199 2.27363 13.7264C2.97007 14.4228 3.79687 14.9753 4.70681 15.3522C5.61675 15.7291 6.59202 15.9231 7.57693 15.9231C9.56606 15.9231 11.4737 15.1329 12.8802 13.7264C14.2868 12.3199 15.0769 10.4122 15.0769 8.4231C15.0769 7.43818 14.8829 6.46291 14.506 5.55297C14.1291 4.64303 13.5767 3.81623 12.8802 3.11979C12.1838 2.42336 11.357 1.87091 10.4471 1.494C9.53712 1.11709 8.56185 0.923096 7.57693 0.923096ZM6.82693 12.1731H8.32693V7.6731H6.82693V12.1731Z" fill="#008CF1"/>
</svg>
