<svg width="10" height="6" viewBox="0 0 10 6" fill="none" xmlns="http://www.w3.org/2000/svg">
<path d="M9.77988 0.306379C9.6389 0.16355 9.44771 0.083313 9.24837 0.083313C9.04902 0.0833129 8.85783 0.16355 8.71685 0.306379L4.99546 4.07765L1.27408 0.306379C1.13229 0.167597 0.94238 0.0908046 0.745262 0.0925405C0.548143 0.0942763 0.359584 0.174402 0.220195 0.315659C0.0808067 0.456917 0.00174138 0.648004 2.85768e-05 0.847764C-0.00168423 1.04752 0.0740928 1.23998 0.211038 1.38367L4.46394 5.69358C4.60492 5.83641 4.79611 5.91665 4.99546 5.91665C5.19481 5.91665 5.386 5.83641 5.52698 5.69358L9.77988 1.38367C9.92082 1.24079 10 1.04704 10 0.845023C10 0.643002 9.92082 0.449251 9.77988 0.306379Z" fill="white"/>
</svg>
