<svg width="6" height="10" viewBox="0 0 6 10" fill="none" xmlns="http://www.w3.org/2000/svg">
<path d="M0.306379 0.220115C0.16355 0.361098 0.083313 0.552285 0.083313 0.751634C0.083313 0.950983 0.16355 1.14217 0.306379 1.28315L4.07765 5.00454L0.306379 8.72592C0.167598 8.86771 0.090805 9.05762 0.0925409 9.25474C0.0942768 9.45186 0.174402 9.64042 0.31566 9.77981C0.456917 9.91919 0.648004 9.99826 0.847765 9.99997C1.04753 10.0017 1.23998 9.92591 1.38367 9.78896L5.69358 5.53606C5.83641 5.39508 5.91665 5.20389 5.91665 5.00454C5.91665 4.80519 5.83641 4.614 5.69358 4.47302L1.38367 0.220115C1.24079 0.0791756 1.04704 0 0.845023 0C0.643002 0 0.449251 0.0791756 0.306379 0.220115Z" fill="#919191"/>
</svg>
