<svg width="13" height="8" viewBox="0 0 13 8" fill="none" xmlns="http://www.w3.org/2000/svg">
<path d="M12.7138 0.49836C12.5306 0.312682 12.282 0.208374 12.0229 0.208374C11.7637 0.208374 11.5152 0.312682 11.3319 0.49836L6.4941 5.40101L1.6563 0.498359C1.47197 0.317944 1.22509 0.218113 0.968842 0.22037C0.712587 0.222626 0.46746 0.32679 0.286255 0.510424C0.105049 0.694059 0.00226494 0.942472 3.81035e-05 1.20216C-0.00218874 1.46185 0.096321 1.71204 0.27435 1.89883L5.80313 7.50172C5.9864 7.6874 6.23495 7.79171 6.4941 7.79171C6.75325 7.79171 7.0018 7.6874 7.18507 7.50172L12.7138 1.89883C12.8971 1.7131 13 1.46122 13 1.1986C13 0.935969 12.8971 0.684094 12.7138 0.49836Z" fill="#008CF1"/>
</svg>
