<svg width="10" height="11" viewBox="0 0 10 11" fill="none" xmlns="http://www.w3.org/2000/svg">
<path fill-rule="evenodd" clip-rule="evenodd" d="M7.55951 7.21655C8.183 6.41273 8.47685 5.40157 8.38127 4.38878C8.28568 3.376 7.80786 2.43766 7.04499 1.76468C6.28213 1.09169 5.29153 0.734612 4.27473 0.766076C3.25793 0.79754 2.29131 1.21519 1.57151 1.93405C0.851092 2.65342 0.432079 3.62041 0.399863 4.63798C0.367647 5.65556 0.724653 6.64712 1.39813 7.41061C2.0716 8.17411 3.01086 8.65207 4.0245 8.7471C5.03814 8.84212 6.04987 8.54707 6.85351 7.92205L6.87501 7.94455L8.99601 10.0661C9.04247 10.1125 9.09762 10.1494 9.15832 10.1745C9.21901 10.1996 9.28407 10.2126 9.34976 10.2126C9.41546 10.2126 9.48052 10.1996 9.54121 10.1745C9.60191 10.1494 9.65706 10.1125 9.70351 10.0661C9.74997 10.0196 9.78682 9.96445 9.81196 9.90375C9.8371 9.84305 9.85004 9.778 9.85004 9.7123C9.85004 9.6466 9.8371 9.58155 9.81196 9.52085C9.78682 9.46016 9.74997 9.40501 9.70351 9.35855L7.58201 7.23755C7.57471 7.23035 7.56721 7.22334 7.55951 7.21655ZM6.52151 2.64155C6.80381 2.91929 7.02833 3.25018 7.18211 3.61512C7.3359 3.98006 7.4159 4.37184 7.41751 4.76786C7.41913 5.16388 7.34231 5.5563 7.19151 5.92248C7.0407 6.28867 6.81889 6.62137 6.53886 6.9014C6.25883 7.18143 5.92613 7.40324 5.55994 7.55405C5.19376 7.70485 4.80134 7.78167 4.40532 7.78005C4.00931 7.77844 3.61753 7.69844 3.25258 7.54465C2.88764 7.39087 2.55675 7.16635 2.27901 6.88405C1.72397 6.3199 1.41434 5.55927 1.41756 4.76786C1.42079 3.97645 1.7366 3.21837 2.29622 2.65876C2.85584 2.09914 3.61391 1.78332 4.40532 1.7801C5.19673 1.77688 5.95736 2.08651 6.52151 2.64155Z" fill="#3C3C3C"/>
</svg>
