<svg width="14" height="14" viewBox="0 0 14 14" fill="none" xmlns="http://www.w3.org/2000/svg">
<path d="M2.33331 5.25004H6.99998M6.99998 8.75004H11.6666M6.99998 2.33337V11.6667M2.33331 3.50004C2.33331 3.19062 2.45623 2.89388 2.67502 2.67508C2.89381 2.45629 3.19056 2.33337 3.49998 2.33337H10.5C10.8094 2.33337 11.1061 2.45629 11.3249 2.67508C11.5437 2.89388 11.6666 3.19062 11.6666 3.50004V10.5C11.6666 10.8095 11.5437 11.1062 11.3249 11.325C11.1061 11.5438 10.8094 11.6667 10.5 11.6667H3.49998C3.19056 11.6667 2.89381 11.5438 2.67502 11.325C2.45623 11.1062 2.33331 10.8095 2.33331 10.5V3.50004Z" stroke="#fff" stroke-width="1.2" stroke-linecap="round" stroke-linejoin="round"/>
</svg>
