<svg width="18" height="18" viewBox="0 0 18 18" fill="none" xmlns="http://www.w3.org/2000/svg">
<g clip-path="url(#clip0_250_1268)">
<path d="M11.25 1.125H5.24982C4.83572 1.125 4.5 1.46072 4.5 1.87482V5.06248L11.25 8.99996L14.625 10.4242L18 8.99996V5.06248L11.25 1.125Z" fill="#21A366"/>
<path d="M4.5 5.0625H11.25V8.99998H4.5V5.0625Z" fill="#107C41"/>
<path d="M17.2502 1.125H11.25V5.06248H18V1.87482C18 1.46072 17.6642 1.125 17.2501 1.125H17.2502Z" fill="#33C481"/>
<path d="M11.25 9H4.5V16.1252C4.5 16.5393 4.83572 16.875 5.24982 16.875H17.2502C17.6643 16.875 18 16.5393 18 16.1252V12.9376L11.25 9.00008L11.25 9Z" fill="#185C37"/>
<path d="M11.25 9H18V12.9375H11.25V9Z" fill="#107C41"/>
<path opacity="0.1" d="M9.37521 3.9375H4.5V14.625H9.37521C9.78884 14.6238 10.1238 14.2888 10.125 13.8752V4.68732C10.1238 4.27369 9.78884 3.93876 9.37521 3.9375Z" fill="black"/>
<path opacity="0.2" d="M8.81266 4.5H4.5V15.1875H8.81266C9.22629 15.1862 9.56123 14.8513 9.56248 14.4377V5.24982C9.56123 4.83619 9.22629 4.50126 8.81266 4.5Z" fill="black"/>
<path opacity="0.2" d="M8.81266 4.5H4.5V14.0625H8.81266C9.22629 14.0612 9.56123 13.7263 9.56248 13.3127V5.24982C9.56123 4.83619 9.22629 4.50126 8.81266 4.5Z" fill="black"/>
<path opacity="0.2" d="M8.2502 4.5H4.5V14.0625H8.2502C8.66383 14.0612 8.99876 13.7263 9.00002 13.3127V5.24982C8.99876 4.83619 8.66383 4.50126 8.2502 4.5Z" fill="black"/>
<path d="M0.74982 4.5H8.25022C8.66432 4.5 9.00004 4.83572 9.00004 5.24982V12.7502C9.00004 13.1643 8.66432 13.5 8.25022 13.5H0.74982C0.335717 13.5 0 13.1643 0 12.7502V5.24982C0 4.83572 0.335717 4.5 0.74982 4.5Z" fill="#107C41"/>
<path d="M1.98738 11.8125L3.80764 8.99219L2.14038 6.18758H3.48191L4.39204 7.98024C4.4757 8.15015 4.53325 8.27688 4.5647 8.36046H4.57649C4.63648 8.22468 4.6993 8.09267 4.76495 7.96444L5.7375 6.1875H6.96881L5.25877 8.97639L7.01205 11.8125H5.70142L4.65008 9.84375C4.60055 9.75986 4.55856 9.6718 4.52468 9.58052H4.50895C4.47829 9.66983 4.43749 9.7553 4.38748 9.83533L3.3058 11.8125H1.9873H1.98738Z" fill="white"/>
</g>
<defs>
<clipPath id="clip0_250_1268">
<rect width="18" height="18" fill="white"/>
</clipPath>
</defs>
</svg>
