<svg width="18" height="18" viewBox="0 0 18 18" fill="none" xmlns="http://www.w3.org/2000/svg">
<path d="M13.5562 1.16553L16.6859 4.42803V16.8345H4.99438V16.875H16.7259V4.46909L13.5562 1.16553Z" fill="#909090"/>
<path d="M13.5174 1.125H4.95447V16.8345H16.686V4.42856L13.5174 1.125Z" fill="#F4F4F4"/>
<path d="M4.86842 1.96875H1.27405V5.80894H12.5803V1.96875H4.86842Z" fill="#7A7B7C"/>
<path d="M12.6405 5.74388H1.34717V1.90088H12.6405V5.74388Z" fill="#DD2025"/>
<path d="M5.09175 2.5505H4.35657V5.2505H4.93482V4.33981L5.0625 4.34712C5.18662 4.34541 5.30959 4.32317 5.42644 4.28131C5.52917 4.24643 5.62358 4.1907 5.70376 4.11762C5.78597 4.04868 5.85057 3.96114 5.89219 3.86225C5.94914 3.6984 5.96931 3.52402 5.95125 3.3515C5.94805 3.22823 5.92643 3.10613 5.88713 2.98925C5.85171 2.90477 5.79904 2.82861 5.7325 2.76565C5.66596 2.70269 5.587 2.65432 5.50069 2.62362C5.42628 2.59606 5.34917 2.57645 5.27063 2.56512C5.2113 2.55546 5.1513 2.55057 5.09119 2.5505M4.98488 3.84087H4.93482V3.00837H5.04338C5.09129 3.00492 5.13937 3.01227 5.18406 3.0299C5.22875 3.04752 5.26891 3.07496 5.30157 3.11018C5.36925 3.20076 5.4054 3.311 5.4045 3.42406C5.4045 3.56243 5.4045 3.68787 5.27963 3.77618C5.18969 3.82573 5.08727 3.84857 4.98488 3.84087ZM7.04982 2.54318C6.98738 2.54318 6.92663 2.54769 6.88388 2.54937L6.75001 2.55275H6.31126V5.25275H6.82763C7.02495 5.25782 7.22136 5.22439 7.40588 5.15431C7.55445 5.09564 7.68595 5.00069 7.78838 4.87812C7.88876 4.75502 7.96043 4.61109 7.99819 4.45681C8.04256 4.28239 8.06411 4.10296 8.06232 3.923C8.07333 3.71046 8.05688 3.49739 8.01338 3.28906C7.97174 3.13589 7.89466 2.99465 7.78838 2.87675C7.70502 2.78141 7.60247 2.70474 7.48744 2.65175C7.38891 2.60607 7.28522 2.57245 7.17863 2.55162C7.13624 2.54467 7.09333 2.54147 7.05038 2.54206M6.94801 4.75662H6.89175V3.03312H6.89907C7.01503 3.01971 7.13239 3.04064 7.23657 3.09331C7.31288 3.15424 7.37506 3.23101 7.41882 3.31831C7.46604 3.41019 7.49327 3.51103 7.49869 3.61419C7.50376 3.73794 7.49869 3.83918 7.49869 3.923C7.50077 4.01954 7.49456 4.11608 7.48013 4.21156C7.46243 4.30947 7.4304 4.40424 7.38507 4.49281C7.33385 4.57541 7.2639 4.64478 7.18088 4.69531C7.11153 4.74031 7.02931 4.76126 6.94688 4.75494M9.80438 2.55275H8.4375V5.25275H9.01575V4.18175H9.747V3.68H9.01575V3.0545H9.80325V2.55275" fill="#464648"/>
<path d="M12.2518 11.3936C12.2518 11.3936 14.045 11.0685 14.045 11.681C14.045 12.2936 12.9341 12.0444 12.2518 11.3936ZM10.9259 11.4403C10.641 11.5031 10.3633 11.5953 10.0974 11.7153L10.3224 11.2091C10.5474 10.7028 10.7808 10.0127 10.7808 10.0127C11.0486 10.465 11.3611 10.8893 11.7134 11.2794C11.4482 11.3189 11.1853 11.373 10.9259 11.4414V11.4403ZM10.2161 7.78403C10.2161 7.25022 10.3888 7.10453 10.5232 7.10453C10.6576 7.10453 10.8089 7.16922 10.814 7.63272C10.7701 8.09878 10.6726 8.5582 10.5232 9.00185C10.3179 8.62962 10.2119 8.21079 10.2155 7.78572L10.2161 7.78403ZM7.60101 13.6993C7.05089 13.3702 8.7547 12.3572 9.06351 12.3245C9.06182 12.3251 8.17701 14.0435 7.60101 13.6993ZM14.5687 11.7536C14.5631 11.6973 14.5124 11.0747 13.4043 11.1011C12.9424 11.093 12.4807 11.1256 12.0245 11.1984C11.5823 10.7533 11.2017 10.251 10.8928 9.70497C11.0873 9.14207 11.2051 8.55556 11.2432 7.96122C11.2269 7.28622 11.0654 6.89922 10.5479 6.90485C10.0304 6.91047 9.95507 7.36328 10.0231 8.03716C10.0898 8.49001 10.2155 8.93216 10.3972 9.35228C10.3972 9.35228 10.1581 10.0965 9.84201 10.8367C9.52589 11.577 9.30989 11.9651 9.30989 11.9651C8.76009 12.1439 8.24256 12.4097 7.77707 12.7526C7.31357 13.184 7.12514 13.5153 7.36926 13.8467C7.57964 14.1324 8.31595 14.1971 8.97407 13.3348C9.32316 12.889 9.64259 12.4207 9.93032 11.933C9.93032 11.933 10.9338 11.658 11.246 11.5826C11.5582 11.5072 11.9356 11.4476 11.9356 11.4476C11.9356 11.4476 12.8519 12.3695 13.7356 12.3369C14.6193 12.3043 14.5766 11.8087 14.5709 11.7547" fill="#DD2025"/>
<path d="M13.4741 1.16846V4.47202H16.6427L13.4741 1.16846Z" fill="#909090"/>
<path d="M13.5175 1.125V4.42856H16.686L13.5175 1.125Z" fill="#F4F4F4"/>
<path d="M5.04842 2.50704H4.31323V5.20704H4.89373V4.29692L5.02198 4.30423C5.14609 4.30252 5.26907 4.28028 5.38592 4.23842C5.48865 4.20354 5.58306 4.14781 5.66323 4.07473C5.74483 4.0056 5.80884 3.91807 5.84998 3.81935C5.90693 3.6555 5.9271 3.48112 5.90904 3.3086C5.90584 3.18533 5.88422 3.06323 5.84492 2.94635C5.8095 2.86187 5.75683 2.78571 5.69029 2.72275C5.62375 2.65979 5.54479 2.61142 5.45848 2.58073C5.38373 2.5529 5.30623 2.5331 5.22729 2.52167C5.16797 2.512 5.10796 2.50711 5.04786 2.50704M4.94154 3.79742H4.89148V2.96492H5.00061C5.04852 2.96146 5.0966 2.96882 5.14129 2.98644C5.18598 3.00406 5.22614 3.0315 5.25879 3.06673C5.32647 3.1573 5.36263 3.26754 5.36173 3.3806C5.36173 3.51898 5.36173 3.64442 5.23686 3.73273C5.14692 3.78227 5.0445 3.80455 4.94211 3.79685M7.00648 2.49973C6.94405 2.49973 6.88329 2.50423 6.84054 2.50592L6.70836 2.50929H6.26961V5.20929H6.78598C6.9833 5.21437 7.17971 5.18093 7.36423 5.11085C7.5128 5.05218 7.6443 4.95723 7.74673 4.83467C7.84711 4.71156 7.91878 4.56764 7.95655 4.41335C8.00091 4.23894 8.02246 4.0595 8.02067 3.87954C8.03168 3.667 8.01523 3.45393 7.97173 3.2456C7.93009 3.09243 7.85302 2.95119 7.74673 2.83329C7.66337 2.73795 7.56082 2.66128 7.4458 2.60829C7.34726 2.56262 7.24357 2.529 7.13698 2.50817C7.0946 2.50122 7.05168 2.49802 7.00873 2.4986M6.90636 4.71317H6.85011V2.98967H6.85742C6.97339 2.97626 7.09074 2.99718 7.19492 3.04985C7.27123 3.11079 7.33341 3.18755 7.37717 3.27485C7.42439 3.36673 7.45162 3.46757 7.45704 3.57073C7.46211 3.69448 7.45704 3.79573 7.45704 3.87954C7.45912 3.97608 7.45291 4.07262 7.43848 4.1681C7.42079 4.26601 7.38875 4.36078 7.34342 4.44935C7.29221 4.53195 7.22225 4.60133 7.13923 4.65185C7.06988 4.69686 6.98766 4.71781 6.90523 4.71148M9.76104 2.50929H8.39417V5.20929H8.97242V4.13829H9.70367V3.63654H8.97242V3.01104H9.75992V2.50929" fill="white"/>
</svg>
