<svg width="17" height="17" viewBox="0 0 17 17" fill="none" xmlns="http://www.w3.org/2000/svg">
<path fill-rule="evenodd" clip-rule="evenodd" d="M12.2658 11.0274C13.305 9.68772 13.7947 8.00245 13.6354 6.31448C13.4761 4.6265 12.6797 3.06261 11.4083 1.94097C10.1369 0.819328 8.48586 0.22419 6.7912 0.27663C5.09653 0.329071 3.4855 1.02515 2.28584 2.22326C1.08513 3.4222 0.386777 5.03386 0.333084 6.72981C0.279391 8.42577 0.874401 10.0784 1.99686 11.3509C3.11932 12.6234 4.68475 13.42 6.37415 13.5783C8.06354 13.7367 9.74976 13.2449 11.0892 12.2033L11.125 12.2408L14.66 15.7766C14.7374 15.854 14.8293 15.9154 14.9305 15.9573C15.0317 15.9992 15.1401 16.0208 15.2496 16.0208C15.3591 16.0208 15.4675 15.9992 15.5687 15.9573C15.6698 15.9154 15.7617 15.854 15.8392 15.7766C15.9166 15.6992 15.978 15.6072 16.0199 15.5061C16.0618 15.4049 16.0834 15.2965 16.0834 15.187C16.0834 15.0775 16.0618 14.9691 16.0199 14.8679C15.978 14.7668 15.9166 14.6748 15.8392 14.5974L12.3033 11.0624C12.2912 11.0504 12.2787 11.0387 12.2658 11.0274ZM10.5358 3.40242C11.0063 3.86532 11.3805 4.4168 11.6368 5.02504C11.8931 5.63328 12.0265 6.28624 12.0292 6.94627C12.0319 7.60631 11.9038 8.26034 11.6525 8.87064C11.4012 9.48095 11.0315 10.0355 10.5647 10.5022C10.098 10.9689 9.54353 11.3386 8.93322 11.5899C8.32291 11.8413 7.66888 11.9693 7.00885 11.9666C6.34882 11.9639 5.69585 11.8306 5.08762 11.5743C4.47938 11.318 3.9279 10.9438 3.465 10.4733C2.53993 9.533 2.02388 8.26529 2.02925 6.94627C2.03462 5.62726 2.56098 4.36379 3.49368 3.4311C4.42637 2.4984 5.68983 1.97205 7.00885 1.96667C8.32787 1.9613 9.59558 2.47736 10.5358 3.40242Z" fill="#008CF1"/>
</svg>
