<svg width="7" height="11" viewBox="0 0 7 11" fill="none" xmlns="http://www.w3.org/2000/svg">
<path d="M0.537365 0.242127C0.380253 0.397208 0.291992 0.607514 0.291992 0.826798C0.291992 1.04608 0.380253 1.25639 0.537365 1.41147L4.68576 5.50499L0.537365 9.59852C0.384706 9.75449 0.300233 9.96338 0.302143 10.1802C0.304052 10.397 0.39219 10.6045 0.547574 10.7578C0.702957 10.9111 0.913152 10.9981 1.13289 11C1.35263 11.0019 1.56432 10.9185 1.72238 10.7679L6.46329 6.08966C6.6204 5.93458 6.70866 5.72428 6.70866 5.50499C6.70866 5.28571 6.6204 5.0754 6.46329 4.92032L1.72238 0.242127C1.56522 0.0870932 1.3521 0 1.12987 0C0.90765 0 0.694524 0.0870932 0.537365 0.242127Z" fill="#3C3C3C"/>
</svg>
