<svg width="7" height="11" viewBox="0 0 7 11" fill="none" xmlns="http://www.w3.org/2000/svg">
<path d="M6.46264 10.7579C6.61975 10.6028 6.70801 10.3925 6.70801 10.1732C6.70801 9.95392 6.61975 9.74361 6.46264 9.58853L2.31424 5.49501L6.46264 1.40148C6.6153 1.24551 6.69977 1.03662 6.69786 0.819789C6.69595 0.602959 6.60781 0.395543 6.45243 0.242215C6.29704 0.0888872 6.08685 0.00191588 5.86711 3.23514e-05C5.64738 -0.00185213 5.43568 0.0815018 5.27762 0.232142L0.536713 4.91034C0.379601 5.06542 0.29134 5.27572 0.29134 5.49501C0.29134 5.71429 0.379601 5.9246 0.536713 6.07968L5.27762 10.7579C5.43478 10.9129 5.6479 11 5.87013 11C6.09235 11 6.30548 10.9129 6.46264 10.7579Z" fill="#3C3C3C"/>
</svg>
